<?xml version="1.0" encoding="utf-8"?>
<!-- Generator: Adobe Illustrator 16.0.0, SVG Export Plug-In . SVG Version: 6.00 Build 0)  -->
<!DOCTYPE svg PUBLIC "-//W3C//DTD SVG 1.1//EN" "http://www.w3.org/Graphics/SVG/1.1/DTD/svg11.dtd">
<svg version="1.1" id="레이어_1" xmlns="http://www.w3.org/2000/svg" xmlns:xlink="http://www.w3.org/1999/xlink" x="0px"
	 y="0px" width="104.44px" height="90.676px" viewBox="0 0 104.44 90.676" enable-background="new 0 0 104.44 90.676"
	 xml:space="preserve">
<path fill-rule="evenodd" clip-rule="evenodd" fill="#1A8D5F" d="M27.558,59.821v11.863c-2.77-0.209-5.41-0.913-7.851-2.031
	c-3.087-1.415-5.868-3.494-8.199-6.073c-2.345-2.596-4.236-5.699-5.528-9.152c-1.245-3.326-1.932-6.985-1.932-10.839
	c0-1.979,0.181-3.896,0.524-5.735c0.356-1.901,0.886-3.739,1.573-5.496c0.578-1.48,1.265-2.893,2.051-4.225
	c0.79-1.343,1.682-2.605,2.661-3.773l0.079-0.104c0.021-0.027,0.013-0.02,0.021-0.027c0.026-0.033,0-0.006,0.017-0.022h0.007
	l0.14-0.157l0.024-0.032c0.181-0.207,0.303-0.345,0.37-0.419c0.027-0.031,0.161-0.173,0.384-0.41l0.024-0.031L29.081,4.163
	c0.045-0.05,0.093-0.083,0.139-0.104c0.027-0.011,0.063-0.017,0.104-0.015h0.236c0.039-0.002,0.074,0.002,0.104,0.015
	c0.046,0.021,0.094,0.054,0.139,0.104l17.157,18.994l0.024,0.031c0.225,0.238,0.356,0.379,0.384,0.41
	c0.066,0.074,0.188,0.212,0.369,0.419l0.024,0.032l0.14,0.157h0.008c0.017,0.019-0.011-0.009,0.017,0.022
	c0.008,0.009,0,0.001,0.021,0.027l0.079,0.104c0.979,1.168,1.87,2.43,2.66,3.773c0.785,1.332,1.472,2.745,2.052,4.225
	c0.687,1.757,1.217,3.595,1.573,5.496c0.343,1.838,0.524,3.756,0.524,5.735c0,3.854-0.688,7.516-1.932,10.839
	c-1.292,3.453-3.183,6.557-5.527,9.152c-2.332,2.581-5.113,4.658-8.2,6.073c-2.355,1.081-4.899,1.774-7.567,2.008V44.999
	l15.806-8.179c0.992-0.512,1.381-1.729,0.87-2.721c-0.512-0.992-1.729-1.382-2.72-0.87L31.607,40.45V18.762
	c0-1.118-0.907-2.025-2.024-2.025c-1.117,0-2.023,0.907-2.023,2.025v10.721l-8.259-7.09c-0.847-0.726-2.121-0.626-2.845,0.222
	c-0.726,0.848-0.626,2.123,0.222,2.847l10.884,9.345v19.743L14.876,43.848c-0.852-0.717-2.122-0.606-2.838,0.246
	s-0.605,2.123,0.246,2.839l15.28,12.887L27.558,59.821z M27.558,90.676h4.047h24.79v-4.508h-24.79V75.724
	c3.247-0.246,6.358-1.077,9.244-2.4c3.588-1.646,6.814-4.053,9.513-7.039c2.685-2.971,4.845-6.517,6.317-10.45
	c1.418-3.788,2.199-7.926,2.199-12.247c0-2.197-0.209-4.364-0.604-6.479c-0.404-2.16-1.005-4.244-1.778-6.225
	c-0.657-1.683-1.44-3.292-2.336-4.811c-0.902-1.534-1.92-2.975-3.038-4.309l-0.068-0.085c-0.03-0.035-0.082-0.094-0.155-0.177
	l0.004-0.004l-0.141-0.157l-0.002,0.002c-0.087-0.1-0.224-0.251-0.406-0.455c-0.242-0.266-0.382-0.421-0.432-0.473l-0.002,0.002
	L32.789,1.455c-0.454-0.502-0.988-0.874-1.563-1.116c-0.578-0.244-1.186-0.357-1.787-0.336c-0.602-0.019-1.209,0.092-1.787,0.336
	c-0.572,0.242-1.106,0.613-1.562,1.116L8.958,20.419l-0.002-0.002c-0.05,0.054-0.19,0.207-0.432,0.473
	c-0.183,0.204-0.319,0.355-0.406,0.455l-0.002-0.002L7.976,21.5l0.004,0.004c-0.074,0.081-0.126,0.14-0.155,0.177l-0.068,0.085
	c-1.117,1.334-2.134,2.775-3.039,4.309c-0.896,1.519-1.678,3.126-2.335,4.811c-0.773,1.98-1.374,4.063-1.778,6.225
	C0.208,39.225,0,41.392,0,43.589c0,4.323,0.783,8.459,2.199,12.247c1.471,3.933,3.633,7.479,6.318,10.45
	c2.697,2.985,5.923,5.393,9.512,7.039c2.969,1.362,6.176,2.203,9.527,2.42v5.441v4.983H2.766v4.508h24.791H27.558z"/>
<path fill-rule="evenodd" clip-rule="evenodd" fill="#1A8D5F" d="M68.326,49.992l-0.003-0.028
	C68.324,49.974,68.324,49.983,68.326,49.992z M68.463,50.515c-0.003-0.009-0.007-0.017-0.011-0.026
	C68.456,50.499,68.46,50.506,68.463,50.515z M68.51,50.621c-0.016-0.03-0.028-0.058-0.039-0.089
	C68.483,50.562,68.496,50.591,68.51,50.621z M68.86,51.13l-0.019-0.021C68.848,51.117,68.854,51.123,68.86,51.13z M68.964,51.232
	l-0.022-0.021C68.949,51.219,68.956,51.225,68.964,51.232z M69.072,51.324c-0.007-0.005-0.015-0.013-0.023-0.019
	C69.056,51.312,69.063,51.319,69.072,51.324z M69.15,51.383c-0.008-0.005-0.017-0.011-0.024-0.019
	C69.134,51.371,69.143,51.376,69.15,51.383z M69.194,51.415c-0.011-0.007-0.021-0.015-0.031-0.022
	C69.174,51.4,69.184,51.408,69.194,51.415z M69.231,51.439c-0.01-0.006-0.021-0.013-0.029-0.021
	C69.211,51.426,69.222,51.432,69.231,51.439z M69.323,51.496c-0.009-0.005-0.019-0.011-0.027-0.017
	C69.305,51.485,69.314,51.491,69.323,51.496z M69.366,51.52c-0.012-0.005-0.021-0.011-0.031-0.017
	C69.346,51.509,69.354,51.515,69.366,51.52z M69.408,51.542c-0.011-0.006-0.021-0.011-0.031-0.017
	C69.388,51.531,69.399,51.537,69.408,51.542z M70.053,51.746c-0.009-0.002-0.017-0.002-0.025-0.004
	C70.036,51.744,70.044,51.744,70.053,51.746z M70.104,51.753c-0.009-0.002-0.019-0.002-0.029-0.004
	C70.084,51.751,70.094,51.751,70.104,51.753z M70.156,51.758c-0.011-0.001-0.022-0.001-0.033-0.003
	C70.134,51.757,70.146,51.757,70.156,51.758z M70.204,51.762c-0.011,0-0.021-0.002-0.031-0.002
	C70.184,51.76,70.193,51.762,70.204,51.762z M70.26,51.764c-0.011,0-0.024,0-0.035-0.002C70.235,51.762,70.249,51.764,70.26,51.764z
	 M70.312,51.766c-0.013,0-0.024,0-0.037,0C70.287,51.766,70.299,51.766,70.312,51.766z M86.382,86.168h18.059v4.508H86.382H68.323
	V49.93l0.001,0.011c-0.003-0.048-0.007-0.096-0.009-0.146c-0.27-9.982,2.359-17.876,7.888-23.679
	c5.473-5.744,13.714-9.335,24.731-10.771c1.104-0.144,2.117,0.635,2.262,1.74c0.015,0.113,0.02,0.222,0.017,0.333
	c0.031,9.788-2.325,17.507-7.071,23.159c-4.776,5.687-10.194,8.805-19.627,10.119c-1.104,0.153-2.123-0.619-2.276-1.724
	c-0.153-1.105,0.619-2.125,1.723-2.278c8.416-1.171,12.991-3.821,17.097-8.709c3.752-4.467,5.779-10.564,6.084-18.29
	c-8.901,1.479-15.572,4.55-20.011,9.209c-3.305,3.47-5.404,7.874-6.3,13.212V86.17h13.555L86.382,86.168z"/>
<g>
	<defs>
		<rect id="SVGID_1_" x="-158.06" y="-105.792" width="375" height="375"/>
	</defs>
	<clipPath id="SVGID_2_">
		<use xlink:href="#SVGID_1_"  overflow="visible"/>
	</clipPath>
</g>
</svg>
