<svg width="369.3" height="100.5" viewBox="0 0 369.3 100.5" xmlns="http://www.w3.org/2000/svg"><g id="svgGroup" stroke-linecap="round" fill-rule="nonzero" font-size="9pt" stroke="#1a8d5f" stroke-width="1" fill="#1a8d5f" style="stroke:#1a8d5f;stroke-width:1;fill:#1a8d5f"><path d="M 43 17.5 L 17.1 17.5 L 17.1 31.7 L 40 31.7 L 40 44.9 L 17.1 44.9 L 17.1 60.3 L 43 60.3 L 43 74 L 0 74 L 0 3.8 L 43 3.8 L 43 17.5 Z M 289.1 18.2 L 307.6 18.2 L 272.6 100.5 L 254.2 100.5 L 267 72.1 L 244.3 18.2 L 263.4 18.2 L 276.3 53.1 L 289.1 18.2 Z M 369.3 41.4 L 369.3 74 L 352.3 74 L 352.3 43.7 A 17.367 17.367 0 0 0 351.973 40.22 Q 351.548 38.145 350.573 36.546 A 9.477 9.477 0 0 0 349.4 35 Q 346.5 31.9 341.6 31.9 A 12.548 12.548 0 0 0 338.206 32.336 A 9.383 9.383 0 0 0 333.8 35 A 10.181 10.181 0 0 0 331.46 39.261 Q 331.014 40.837 330.923 42.72 A 20.378 20.378 0 0 0 330.9 43.7 L 330.9 74 L 313.8 74 L 313.8 18.2 L 330.9 18.2 L 330.9 25.6 A 17.723 17.723 0 0 1 336.828 20.312 A 21.223 21.223 0 0 1 337.9 19.75 Q 342.3 17.6 347.8 17.6 A 24.435 24.435 0 0 1 354.845 18.567 A 18.867 18.867 0 0 1 363.45 23.95 Q 368.959 29.93 369.28 40.123 A 40.584 40.584 0 0 1 369.3 41.4 Z M 169 50.2 L 130.3 50.2 Q 130.626 54.439 132.646 57.049 A 9.196 9.196 0 0 0 133.65 58.15 A 10.155 10.155 0 0 0 140.5 60.894 A 13.158 13.158 0 0 0 140.9 60.9 Q 147.127 60.9 149.662 55.788 A 11.928 11.928 0 0 0 149.8 55.5 L 168 55.5 Q 166.6 61 162.95 65.4 A 25.198 25.198 0 0 1 154.142 72.142 A 29.052 29.052 0 0 1 153.8 72.3 A 27.987 27.987 0 0 1 145.021 74.624 A 34.392 34.392 0 0 1 141.5 74.8 Q 133.3 74.8 126.9 71.3 Q 120.5 67.8 116.9 61.3 A 28.421 28.421 0 0 1 113.725 51.821 A 37.148 37.148 0 0 1 113.3 46.1 A 36.131 36.131 0 0 1 114.08 38.427 A 27.995 27.995 0 0 1 116.85 30.9 Q 120.4 24.4 126.8 20.9 A 28.474 28.474 0 0 1 136.982 17.677 A 35.914 35.914 0 0 1 141.5 17.4 A 32.943 32.943 0 0 1 149.598 18.36 A 27.303 27.303 0 0 1 155.9 20.8 Q 162.2 24.2 165.75 30.5 A 27.365 27.365 0 0 1 168.945 40.095 A 35.51 35.51 0 0 1 169.3 45.2 A 38.251 38.251 0 0 1 169.3 45.238 Q 169.298 47.025 169.13 48.922 A 48.181 48.181 0 0 1 169 50.2 Z M 130.4 40.7 L 151.8 40.7 A 10.422 10.422 0 0 0 151.342 37.537 A 8.324 8.324 0 0 0 148.8 33.7 A 10.554 10.554 0 0 0 143.066 31.207 A 14.136 14.136 0 0 0 141.3 31.1 Q 137 31.1 134.05 33.6 A 10.086 10.086 0 0 0 131.102 37.907 A 14.318 14.318 0 0 0 130.4 40.7 Z M 67.1 18.2 L 79.2 58 L 91.3 18.2 L 109.5 18.2 L 89.7 74 L 68.6 74 L 48.8 18.2 L 67.1 18.2 Z M 212.9 17.6 L 212.9 35.7 L 208.2 35.7 Q 204.191 35.7 201.437 36.779 A 9.789 9.789 0 0 0 198.6 38.45 A 7.907 7.907 0 0 0 196.473 41.5 Q 195.4 44.104 195.4 48.1 L 195.4 74 L 178.3 74 L 178.3 18.2 L 195.4 18.2 L 195.4 27.5 Q 198.4 22.9 202.9 20.25 A 19.322 19.322 0 0 1 212.814 17.6 A 22.746 22.746 0 0 1 212.9 17.6 Z M 221.1 0 L 238.2 0 L 238.2 74 L 221.1 74 L 221.1 0 Z"/></g></svg>