<svg version="1.0" xmlns="http://www.w3.org/2000/svg" width="300px" height="300px" viewBox="0 0 1117.000000 1280.000000">
<g transform="translate(0.000000,1280.000000) scale(0.100000,-0.100000)"
fill="#1a8d5f" stroke="none">
<path d="M6110 12780 c-21 -39 -24 -124 -6 -177 26 -80 113 -153 195 -165 20
-2 26 3 37 32 49 135 -41 295 -183 325 -26 5 -34 2 -43 -15z"/>
<path d="M6557 12675 c-124 -32 -203 -170 -168 -295 15 -55 114 -27 185 51 50
55 74 129 62 191 -11 60 -23 68 -79 53z"/>
<path d="M7654 12646 c-92 -43 -144 -127 -144 -235 l0 -51 53 0 c68 0 143 35
188 89 42 48 59 98 59 170 l0 51 -52 0 c-34 0 -71 -9 -104 -24z"/>
<path d="M7231 12579 c-25 -71 -6 -152 47 -211 38 -42 101 -77 139 -78 44 0
56 126 19 197 -21 42 -66 83 -111 104 -60 28 -81 25 -94 -12z"/>
<path d="M6672 12420 c-121 -61 -193 -194 -175 -325 l6 -45 56 0 c76 0 145 26
202 78 79 71 123 190 105 286 l-7 36 -63 0 c-50 0 -75 -6 -124 -30z"/>
<path d="M6055 12430 c-42 -7 -119 -43 -130 -60 -10 -16 40 -94 80 -124 83
-64 203 -73 290 -22 25 15 45 32 45 38 0 6 -11 30 -25 54 -28 48 -102 101
-154 110 -20 3 -43 7 -51 9 -8 1 -33 -1 -55 -5z"/>
<path d="M6354 12340 c3 -8 21 -64 40 -125 169 -531 191 -1022 66 -1492 -32
-120 -67 -222 -81 -237 -12 -13 -300 279 -370 374 -173 233 -286 505 -318 766
-14 116 -23 102 -16 -26 27 -459 193 -826 547 -1213 l81 -88 -19 -42 c-63
-140 -266 -484 -292 -494 -44 -17 -349 113 -501 215 -176 117 -386 350 -501
558 -171 308 -298 722 -355 1157 -14 102 -16 32 -5 -135 28 -420 98 -764 215
-1049 57 -140 84 -192 161 -316 35 -55 64 -104 64 -107 0 -12 -190 -6 -276 9
-297 51 -568 206 -923 528 -68 62 -153 139 -190 172 -36 33 1 -11 84 -98 363
-385 608 -565 898 -662 128 -43 262 -65 396 -65 l103 0 115 -110 c130 -126
294 -240 445 -310 54 -25 97 -47 97 -50 1 -3 -74 -106 -165 -230 -415 -564
-665 -953 -805 -1255 l-40 -86 -77 41 c-156 84 -344 218 -532 379 l-35 29 24
49 c110 225 130 517 56 840 -21 93 -97 364 -101 361 -1 -2 4 -64 12 -138 7
-74 14 -208 14 -296 0 -235 -29 -380 -107 -539 -52 -105 -57 -108 -99 -60 -60
69 -179 236 -238 334 -200 329 -323 692 -386 1131 l-19 135 3 -270 c4 -279 17
-405 64 -620 150 -684 542 -1286 1117 -1717 66 -50 123 -93 127 -97 5 -4 -3
-45 -16 -91 -87 -301 -120 -688 -93 -1103 l9 -127 -44 16 c-87 33 -346 162
-438 218 -223 135 -419 294 -637 514 -90 90 -163 168 -163 173 0 6 13 27 29
47 88 110 150 264 172 428 15 115 7 326 -21 514 -31 213 -38 227 -40 85 -1
-66 -5 -149 -9 -185 l-6 -65 -19 43 c-22 50 -82 107 -135 129 -42 18 -144 20
-183 5 -34 -14 -37 -47 -9 -107 50 -110 175 -171 290 -141 60 15 59 19 36
-101 -19 -102 -55 -206 -97 -285 -35 -67 -144 -191 -159 -182 -17 10 -196 268
-273 390 -157 254 -313 565 -430 861 l-56 143 94 94 c319 320 536 716 591
1081 13 85 20 246 8 175 -46 -270 -172 -534 -374 -785 -129 -161 -372 -382
-389 -355 -24 39 -136 460 -179 671 -49 242 -98 581 -102 709 -4 88 -17 -77
-18 -220 -4 -599 108 -1298 303 -1895 31 -93 56 -171 56 -172 0 -2 -42 -3 -92
-3 -278 1 -511 125 -720 385 -47 59 -180 257 -266 395 -44 71 -19 13 82 -193
157 -321 269 -477 426 -596 154 -116 322 -178 545 -200 60 -6 112 -14 115 -19
4 -4 26 -52 49 -107 155 -358 399 -771 626 -1054 41 -52 74 -95 72 -97 -1 -1
-40 -18 -86 -38 -308 -135 -629 -182 -961 -141 -344 43 -691 159 -1298 434
-63 28 -117 51 -120 51 -23 -1 568 -317 743 -398 626 -290 1112 -349 1635
-196 63 18 148 47 189 63 l73 31 117 -111 c331 -317 748 -585 1132 -728 l86
-32 52 -192 c29 -106 171 -547 316 -982 270 -809 324 -986 395 -1277 86 -357
115 -598 107 -907 -4 -179 -10 -237 -31 -337 -51 -240 -126 -414 -245 -562
-141 -177 -535 -616 -879 -979 l-173 -183 1021 0 1021 0 49 103 c27 56 87 212
133 347 47 135 108 307 136 384 199 532 232 1106 101 1757 -103 509 -299 1051
-709 1964 -44 98 -77 182 -73 185 4 4 54 19 112 35 649 175 1294 547 1816
1047 l81 78 69 -28 c325 -134 658 -189 1035 -170 402 20 839 142 1263 355 119
60 286 152 286 158 0 2 -42 -16 -92 -40 -381 -177 -777 -289 -1155 -326 -146
-14 -461 -6 -597 16 -188 30 -408 96 -579 174 l-67 30 103 123 c251 301 415
551 592 901 l100 199 60 20 c300 100 608 384 872 803 108 171 110 173 -65 -32
-191 -225 -407 -415 -567 -501 -76 -40 -193 -91 -212 -92 -7 0 6 51 33 133
122 358 180 680 191 1048 6 210 -5 407 -31 564 l-14 80 -1 -155 c-5 -669 -213
-1330 -607 -1926 -95 -145 -222 -314 -235 -314 -15 0 -92 170 -138 303 -72
209 -108 417 -118 685 -3 95 -7 171 -9 169 -1 -1 -13 -72 -25 -157 -17 -119
-23 -204 -23 -366 l-1 -211 -22 32 c-49 72 -153 103 -237 71 -67 -26 -74 -39
-42 -81 58 -76 182 -103 261 -56 21 12 39 21 40 19 1 -2 10 -55 19 -118 21
-139 65 -313 105 -417 l30 -76 -142 -142 c-264 -263 -495 -445 -817 -640 -100
-61 -399 -215 -417 -215 -8 0 -43 109 -43 133 0 2 19 1 43 -4 131 -24 260 76
274 214 5 51 4 54 -18 60 -60 16 -141 -2 -200 -43 -36 -26 -77 -95 -94 -158
l-12 -47 -8 99 c-21 266 46 511 178 650 29 31 51 56 49 56 -14 0 -98 -69 -145
-120 -144 -155 -228 -413 -226 -695 0 -60 4 -135 8 -165 5 -30 7 -56 6 -58 -1
-2 -56 -21 -121 -43 -225 -76 -511 -139 -704 -154 -41 -3 -90 -8 -108 -11 -30
-5 -33 -2 -51 39 -37 86 -152 431 -191 573 -68 249 -120 549 -120 694 l0 55
222 -4 c239 -3 339 5 533 46 325 67 671 231 955 452 212 164 407 365 585 603
l103 137 6 -48 c14 -106 106 -192 209 -195 l52 -1 3 45 c5 61 -11 108 -53 157
-38 45 -97 73 -156 76 -36 1 -38 2 -25 22 68 105 221 375 213 375 -3 0 -31
-37 -63 -82 -346 -499 -815 -911 -1259 -1106 -115 -50 -236 -94 -243 -87 -11
11 -21 105 -21 207 -2 232 64 410 225 609 80 99 57 88 -71 -33 -212 -201 -304
-380 -334 -652 -6 -52 -11 -117 -11 -144 l0 -49 -92 -14 c-142 -21 -503 -19
-646 5 -68 11 -116 24 -119 31 -7 19 32 238 69 385 58 236 189 584 313 830
l43 85 168 38 c352 81 687 198 984 347 148 73 156 76 185 64 188 -83 476 -116
696 -78 274 47 553 197 754 404 l50 52 -80 -59 c-217 -162 -429 -248 -676
-274 -163 -18 -364 10 -517 72 l-55 23 24 15 c13 9 76 55 139 103 687 517
1092 1278 1194 2243 21 201 28 291 23 285 -3 -3 -13 -59 -22 -125 -81 -589
-291 -1130 -599 -1543 -110 -147 -327 -382 -354 -382 -12 0 -122 268 -122 296
0 1 15 -2 32 -7 18 -5 59 -9 90 -9 161 0 299 125 315 285 l6 54 -44 11 c-24 7
-69 10 -100 7 -148 -13 -260 -119 -291 -275 l-12 -57 -13 45 c-61 203 -87 418
-80 650 7 230 35 364 111 533 39 86 17 62 -32 -35 -54 -108 -97 -236 -124
-373 -20 -95 -23 -142 -23 -340 1 -195 4 -249 23 -358 28 -155 79 -343 121
-451 18 -43 30 -79 29 -81 -2 -1 -30 -22 -63 -47 -317 -237 -692 -414 -1142
-538 -158 -43 -361 -86 -369 -77 -3 3 38 85 92 184 149 272 314 602 382 763
188 446 276 848 271 1244 l-1 140 83 36 c242 104 426 304 555 602 46 107 176
460 171 465 -3 2 -10 -11 -17 -29 -7 -18 -55 -117 -106 -221 -143 -289 -240
-426 -382 -539 -76 -60 -229 -142 -290 -154 -29 -6 -31 -5 -37 32 -40 247 -95
456 -176 672 -42 113 -139 332 -125 282z"/>
<path d="M7073 12334 c-7 -3 -13 -19 -13 -36 0 -121 109 -228 232 -228 48 0
61 18 53 74 -16 102 -103 183 -207 191 -29 3 -59 2 -65 -1z"/>
<path d="M4593 12273 c-73 -73 -104 -176 -83 -277 13 -62 59 -137 106 -173
l31 -23 38 37 c43 41 82 118 91 179 13 92 -37 212 -113 271 l-32 24 -38 -38z"/>
<path d="M7602 12287 c-48 -18 -99 -63 -122 -107 l-20 -39 26 -20 c56 -44 180
-42 247 5 39 28 86 94 87 120 0 19 -95 54 -142 53 -24 0 -58 -6 -76 -12z"/>
<path d="M5642 12158 c-83 -86 -83 -219 -1 -311 31 -35 40 -40 55 -31 38 22
74 81 86 137 16 74 -6 147 -59 200 -20 20 -39 37 -43 37 -3 0 -20 -15 -38 -32z"/>
<path d="M8536 12157 c-60 -78 -74 -184 -35 -263 19 -41 89 -114 108 -114 14
0 60 59 76 97 21 49 19 149 -4 198 -17 38 -91 115 -111 115 -5 0 -20 -15 -34
-33z"/>
<path d="M6095 12131 c-52 -14 -99 -38 -134 -68 -30 -26 -33 -31 -22 -52 7
-12 29 -41 49 -63 106 -117 300 -130 424 -27 34 27 37 33 27 52 -48 91 -147
155 -251 162 -35 2 -76 1 -93 -4z"/>
<path d="M6923 12123 c-49 -10 -19 -159 45 -226 58 -61 150 -94 224 -82 37 7
38 8 38 49 0 57 -24 124 -60 168 -52 63 -173 107 -247 91z"/>
<path d="M7523 12049 c-17 -5 -53 -29 -80 -53 l-48 -44 43 -41 c41 -39 116
-71 167 -71 50 0 126 32 167 71 l42 39 -35 36 c-19 20 -52 45 -74 55 -43 20
-127 24 -182 8z"/>
<path d="M6755 12045 c-5 -2 -22 -6 -37 -9 -59 -13 -137 -111 -138 -172 0 -27
17 -34 81 -34 64 0 121 29 158 80 30 41 48 107 34 120 -9 9 -83 21 -98 15z"/>
<path d="M4870 11881 c-107 -34 -180 -125 -180 -226 l0 -45 65 0 c78 0 119 15
173 65 49 43 75 105 70 166 l-3 44 -50 2 c-27 1 -61 -2 -75 -6z"/>
<path d="M6140 11811 c-19 -5 -48 -13 -63 -20 -26 -10 -28 -15 -22 -44 12 -58
52 -133 90 -172 81 -80 218 -114 320 -78 48 17 50 19 47 53 -8 93 -106 213
-200 244 -61 20 -128 27 -172 17z"/>
<path d="M6847 11806 c-102 -28 -179 -117 -193 -220 -9 -59 0 -66 81 -66 115
0 218 75 249 181 17 57 20 95 9 102 -22 13 -103 15 -146 3z"/>
<path d="M7424 11811 c-40 -10 -92 -42 -124 -76 -23 -24 -24 -28 -9 -53 19
-36 108 -88 163 -96 81 -12 169 19 230 83 l28 30 -20 28 c-46 65 -179 107
-268 84z"/>
<path d="M8283 11763 c-21 -50 -28 -129 -14 -179 23 -85 115 -174 183 -177 31
-2 34 1 51 48 50 141 -35 305 -176 339 -25 6 -29 3 -44 -31z"/>
<path d="M5355 11753 c-58 -7 -85 -23 -85 -52 1 -71 89 -175 168 -199 67 -20
180 -9 198 19 13 22 -20 101 -63 149 -56 62 -135 92 -218 83z"/>
<path d="M5850 11733 c-79 -40 -115 -95 -115 -176 l0 -62 34 -3 c120 -12 232
90 235 213 l1 50 -50 3 c-39 2 -62 -3 -105 -25z"/>
<path d="M4228 11703 c-21 -8 -38 -20 -38 -27 0 -27 51 -114 86 -148 56 -53
116 -78 191 -78 65 0 143 24 143 44 0 25 -49 114 -81 145 -74 75 -208 103
-301 64z"/>
<path d="M8799 11636 c-89 -24 -157 -101 -174 -197 l-7 -37 49 -10 c119 -26
254 54 279 165 3 15 8 36 10 45 10 34 -83 55 -157 34z"/>
<path d="M4903 11585 c-90 -45 -149 -133 -160 -240 -5 -48 -3 -54 17 -65 28
-15 101 -5 157 21 94 45 169 169 161 266 l-3 38 -60 3 c-48 2 -70 -2 -112 -23z"/>
<path d="M7685 11571 c-75 -35 -125 -111 -125 -190 0 -90 32 -111 108 -72 94
49 143 158 111 250 -13 37 -35 40 -94 12z"/>
<path d="M5968 11518 c-49 -13 -116 -72 -139 -122 -10 -23 -19 -62 -19 -88 l0
-48 56 0 c123 0 224 102 224 226 0 44 -39 54 -122 32z"/>
<path d="M5372 11415 c-52 -23 -92 -55 -92 -73 0 -30 58 -89 112 -116 69 -35
152 -35 223 -2 28 13 58 32 68 43 17 20 17 22 -15 64 -48 62 -123 99 -202 99
-33 -1 -76 -7 -94 -15z"/>
<path d="M8156 11384 c-3 -9 -6 -41 -6 -73 0 -133 117 -251 250 -251 34 0 40
3 46 26 10 41 -2 128 -25 172 -11 22 -39 56 -63 76 -64 55 -188 86 -202 50z"/>
<path d="M4278 11379 c-24 -9 -26 -14 -21 -47 25 -161 208 -281 353 -231 31
11 32 13 26 52 -21 129 -132 226 -266 233 -36 2 -77 -1 -92 -7z"/>
<path d="M7229 11363 c-19 -48 -6 -136 25 -182 26 -37 110 -91 143 -91 20 0
36 41 36 95 0 89 -56 165 -142 194 -47 15 -50 15 -62 -16z"/>
<path d="M6148 11336 c-127 -34 -214 -153 -206 -281 l3 -50 52 -3 c65 -4 119
10 168 44 l38 25 -30 -38 c-50 -63 -66 -104 -71 -180 l-5 -72 37 -6 c119 -23
264 60 316 179 22 49 34 126 26 154 -15 45 -166 32 -239 -20 l-32 -23 33 46
c37 52 62 124 62 181 0 32 -4 40 -26 48 -33 13 -68 12 -126 -4z"/>
<path d="M7689 11276 c-83 -22 -140 -84 -161 -175 -11 -49 -10 -54 8 -68 23
-18 107 -12 151 10 70 37 122 119 123 193 0 39 -2 42 -31 48 -38 7 -33 8 -90
-8z"/>
<path d="M8725 11256 c-56 -26 -98 -70 -126 -131 -18 -39 -18 -40 2 -57 51
-43 162 -47 236 -9 49 25 98 76 117 123 22 53 21 57 -26 78 -60 27 -140 26
-203 -4z"/>
<path d="M5027 11226 c-46 -17 -99 -56 -131 -99 -47 -63 -71 -181 -45 -228 9
-17 17 -19 57 -13 141 20 252 146 252 285 0 60 -7 69 -54 69 -22 -1 -58 -7
-79 -14z"/>
<path d="M3214 11186 c-10 -27 3 -111 25 -153 26 -52 97 -116 152 -137 29 -11
66 -16 104 -14 l60 3 -1 55 c-2 94 -64 188 -157 236 -17 10 -65 19 -104 22
-62 4 -74 2 -79 -12z"/>
<path d="M3767 11186 c-112 -40 -175 -172 -136 -285 13 -37 32 -39 94 -10 79
37 125 110 125 197 0 57 -17 112 -33 112 -7 -1 -29 -7 -50 -14z"/>
<path d="M6754 11189 c-49 -14 -58 -31 -39 -76 48 -115 181 -172 295 -127 45
18 47 23 21 79 -47 103 -166 157 -277 124z"/>
<path d="M5475 11095 c-23 -9 -58 -29 -78 -46 -37 -31 -38 -31 -21 -58 77
-121 220 -166 341 -106 28 14 58 34 67 44 16 17 16 22 3 48 -20 36 -73 86
-117 108 -46 24 -144 29 -195 10z"/>
<path d="M7079 11077 c-17 -36 -3 -106 30 -159 33 -53 113 -98 172 -98 40 0
49 11 49 58 0 108 -84 200 -198 218 -38 6 -42 4 -53 -19z"/>
<path d="M7974 11054 c-5 -22 -8 -59 -8 -84 2 -152 131 -291 286 -307 52 -5
55 -4 61 18 12 44 7 155 -9 202 -35 102 -153 192 -267 204 l-56 6 -7 -39z"/>
<path d="M4332 11041 c-51 -13 -56 -22 -43 -83 22 -103 112 -201 211 -228 46
-13 115 -13 164 1 l38 11 -4 47 c-9 97 -80 191 -176 233 -50 23 -140 31 -190
19z"/>
<path d="M3960 11011 c-119 -36 -186 -151 -157 -267 14 -58 35 -66 94 -35 88
45 142 138 129 228 -6 46 -22 84 -34 82 -4 0 -18 -4 -32 -8z"/>
<path d="M7543 10960 c-35 -20 -61 -44 -78 -73 -35 -61 -33 -85 10 -103 91
-38 216 3 266 86 45 75 46 88 5 105 -61 26 -143 19 -203 -15z"/>
<path d="M8705 10931 c-101 -26 -190 -104 -224 -196 -12 -32 -20 -64 -17 -71
8 -20 107 -48 172 -47 115 1 220 68 274 175 42 85 40 102 -12 123 -49 20 -148
28 -193 16z"/>
<path d="M4180 10910 c-76 -26 -153 -108 -176 -187 -18 -62 -15 -143 8 -190
16 -33 46 -34 114 -4 91 41 154 135 162 244 5 71 -18 157 -41 157 -7 -1 -37
-9 -67 -20z"/>
<path d="M5210 10905 c-96 -30 -176 -133 -187 -241 -6 -53 11 -139 29 -150 18
-11 108 29 153 68 25 22 55 59 67 82 28 55 36 168 15 219 -18 42 -15 41 -77
22z"/>
<path d="M7729 10814 c-88 -231 56 -492 301 -545 28 -6 57 -8 65 -5 26 10 48
113 42 198 -13 189 -161 350 -344 374 -51 6 -53 6 -64 -22z"/>
<path d="M6953 10809 c-38 -11 -40 -23 -19 -93 34 -112 121 -185 230 -193 35
-3 81 -2 101 1 l38 7 -6 49 c-19 161 -189 274 -344 229z"/>
<path d="M5637 10796 c-46 -17 -117 -65 -117 -79 0 -21 52 -86 88 -110 58 -38
108 -50 183 -45 67 5 138 35 168 72 17 20 -7 64 -60 109 -72 62 -177 83 -262
53z"/>
<path d="M3468 10786 c-48 -17 -87 -43 -95 -62 -8 -22 23 -62 70 -85 76 -40
186 -21 241 40 17 19 17 22 3 45 -20 30 -112 76 -151 76 -17 -1 -48 -7 -68
-14z"/>
<path d="M1936 10739 c-39 -46 -56 -84 -63 -139 -8 -71 12 -133 62 -188 l43
-47 22 20 c12 11 34 40 49 65 22 38 26 57 26 120 0 51 -6 85 -17 106 -19 35
-74 94 -88 94 -4 0 -20 -14 -34 -31z"/>
<path d="M4317 10679 c-97 -100 -105 -236 -21 -346 14 -18 32 -33 39 -33 25 0
93 69 116 116 44 92 22 222 -50 288 l-31 30 -53 -55z"/>
<path d="M5375 10638 c-155 -106 -188 -326 -71 -465 l27 -33 38 19 c48 25 108
91 134 150 16 34 21 66 21 126 0 87 -19 141 -72 204 l-27 33 -50 -34z"/>
<path d="M7615 10588 c-32 -11 -91 -52 -113 -78 -54 -63 -68 -180 -32 -256 20
-41 22 -42 53 -33 86 24 166 119 175 207 5 55 -11 121 -36 150 -14 17 -22 18
-47 10z"/>
<path d="M3330 10542 c-53 -55 -75 -119 -65 -186 8 -48 50 -126 68 -126 31 0
87 53 113 105 23 48 26 64 21 116 -6 66 -45 139 -74 139 -9 0 -38 -22 -63 -48z"/>
<path d="M3661 10534 c-38 -19 -62 -40 -82 -72 -32 -51 -47 -108 -32 -123 17
-17 115 -22 162 -9 61 16 133 89 150 153 18 62 9 70 -77 75 -57 3 -75 -1 -121
-24z"/>
<path d="M3006 10513 c-42 -44 -76 -126 -76 -184 0 -88 41 -177 103 -223 l29
-21 38 43 c97 109 94 280 -8 385 -20 20 -39 37 -43 37 -4 0 -23 -17 -43 -37z"/>
<path d="M8561 10520 c-100 -37 -184 -120 -222 -220 -30 -80 -27 -94 29 -116
35 -14 72 -19 147 -19 90 0 105 3 154 28 108 57 195 168 208 265 5 38 4 39
-38 57 -68 28 -210 31 -278 5z"/>
<path d="M5689 10472 c-61 -39 -115 -105 -139 -170 -26 -68 -28 -173 -5 -240
16 -47 78 -142 93 -142 5 0 33 17 62 38 103 72 157 188 147 313 -7 77 -42 160
-85 202 l-28 27 -45 -28z"/>
<path d="M6941 10481 c-67 -18 -111 -43 -111 -66 0 -67 98 -187 188 -228 99
-46 292 -20 300 40 5 34 -45 128 -90 168 -77 70 -201 107 -287 86z"/>
<path d="M4540 10434 c-70 -22 -81 -34 -70 -75 38 -137 196 -242 339 -225 54
6 133 35 144 52 13 22 -38 120 -87 170 -86 86 -210 115 -326 78z"/>
<path d="M3958 10366 c-21 -7 -49 -21 -63 -30 -56 -37 -103 -146 -90 -208 6
-25 11 -28 49 -28 61 0 144 45 181 98 26 38 30 53 30 110 l0 67 -35 2 c-19 2
-52 -4 -72 -11z"/>
<path d="M2159 10323 c-60 -31 -105 -87 -118 -146 -8 -33 -7 -36 22 -48 102
-42 237 17 281 123 25 60 21 76 -21 87 -61 17 -106 13 -164 -16z"/>
<path d="M1682 10295 c-46 -14 -82 -40 -82 -60 0 -27 61 -94 104 -114 74 -37
176 -27 240 21 17 14 17 16 2 45 -23 46 -91 99 -141 112 -54 14 -69 13 -123
-4z"/>
<path d="M3492 10199 c-68 -34 -120 -118 -122 -195 0 -28 3 -32 36 -37 125
-20 254 86 254 208 l0 45 -62 0 c-44 0 -76 -6 -106 -21z"/>
<path d="M2261 10119 c-87 -17 -161 -78 -196 -162 -25 -61 -20 -84 23 -98 129
-44 269 18 328 146 33 70 31 91 -8 103 -54 17 -101 20 -147 11z"/>
<path d="M2701 10121 c-31 -20 9 -150 61 -197 57 -53 180 -83 207 -51 36 44
-29 183 -106 225 -46 25 -139 39 -162 23z"/>
<path d="M4006 10087 c-81 -137 -40 -307 93 -389 l34 -22 23 30 c52 65 68 178
38 266 -24 71 -108 158 -153 158 -6 0 -21 -19 -35 -43z"/>
<path d="M8391 10115 c-76 -17 -161 -65 -207 -119 -19 -22 -34 -43 -34 -47 0
-23 107 -113 167 -142 62 -29 77 -32 163 -32 85 0 102 3 160 31 60 28 160 113
160 135 0 15 -82 100 -121 124 -82 52 -190 71 -288 50z"/>
<path d="M6904 10100 c-23 -5 -64 -19 -90 -32 -44 -21 -49 -26 -46 -53 11 -97
119 -231 229 -283 52 -24 69 -27 168 -27 99 0 116 3 168 27 57 27 59 28 52 60
-12 57 -58 139 -105 188 -99 104 -236 147 -376 120z"/>
<path d="M4332 10065 c-72 -37 -82 -58 -45 -97 37 -40 81 -58 143 -58 82 0
177 60 154 98 -24 37 -89 73 -145 78 -45 5 -63 1 -107 -21z"/>
<path d="M1585 10026 c-70 -32 -80 -47 -61 -84 21 -41 71 -89 116 -112 82 -42
172 -38 258 10 l52 30 -19 38 c-64 123 -221 177 -346 118z"/>
<path d="M3145 10004 c-16 -8 -38 -23 -49 -32 -26 -24 -56 -91 -56 -129 0 -33
0 -33 50 -33 110 0 190 74 190 176 l0 34 -52 0 c-29 0 -66 -7 -83 -16z"/>
<path d="M3635 9971 c-120 -30 -210 -140 -203 -249 l3 -47 75 0 c86 0 133 19
188 73 46 47 72 106 72 168 l0 51 -37 7 c-45 7 -58 6 -98 -3z"/>
<path d="M4706 9954 c-22 -8 -54 -25 -72 -39 -88 -68 -135 -252 -69 -269 37
-9 118 12 169 44 76 49 129 167 111 249 -6 29 -9 31 -53 30 -26 0 -65 -7 -86
-15z"/>
<path d="M5060 9917 c-217 -74 -311 -287 -202 -456 24 -37 30 -41 57 -35 55
12 152 61 193 99 59 53 102 143 102 215 0 32 -7 76 -15 99 -15 44 -51 101 -63
101 -4 0 -36 -11 -72 -23z"/>
<path d="M2557 9883 c-12 -11 -8 -67 8 -119 31 -104 121 -173 235 -182 67 -4
70 -4 79 20 13 34 -3 112 -34 164 -28 48 -72 86 -128 109 -36 15 -148 21 -160
8z"/>
<path d="M2296 9834 c-73 -23 -159 -113 -181 -188 -9 -32 -13 -61 -9 -66 41
-36 177 -40 250 -6 85 39 157 131 166 211 2 25 -2 32 -27 44 -43 21 -141 24
-199 5z"/>
<path d="M4330 9783 c-39 -20 -64 -42 -86 -75 -31 -46 -50 -120 -39 -150 14
-36 111 -26 177 18 61 40 91 94 92 167 l1 62 -45 3 c-34 2 -59 -4 -100 -25z"/>
<path d="M8980 9756 c-11 -19 -26 -59 -32 -88 -21 -99 34 -213 123 -259 22
-11 44 -17 49 -14 20 12 51 87 57 134 11 92 -46 200 -128 241 -21 11 -40 20
-43 20 -2 0 -14 -15 -26 -34z"/>
<path d="M3036 9758 c-33 -19 -10 -137 39 -201 34 -46 116 -87 171 -87 37 0
42 3 47 28 16 83 -43 196 -125 238 -40 21 -113 33 -132 22z"/>
<path d="M3757 9699 c-130 -21 -237 -147 -237 -280 0 -42 13 -49 91 -49 143 0
264 113 285 267 6 50 6 52 -20 58 -56 11 -73 12 -119 4z"/>
<path d="M1616 9679 c-51 -12 -126 -60 -126 -79 0 -35 77 -122 133 -151 93
-48 208 -42 297 17 l40 27 -28 50 c-27 51 -81 98 -139 123 -43 19 -130 25
-177 13z"/>
<path d="M8435 9543 c-44 -23 -74 -53 -98 -98 -41 -78 -20 -235 32 -235 34 0
114 63 138 109 28 53 31 141 7 201 -18 44 -32 48 -79 23z"/>
<path d="M2388 9527 c-69 -29 -112 -64 -156 -126 -34 -47 -68 -142 -59 -165 9
-22 130 -50 191 -43 151 15 285 136 310 279 6 34 4 38 -26 54 -21 12 -63 19
-118 21 -72 3 -94 0 -142 -20z"/>
<path d="M4384 9511 c-82 -37 -152 -156 -109 -187 54 -39 169 -23 235 34 41
34 79 99 80 134 0 38 -135 51 -206 19z"/>
<path d="M8725 9525 c-5 -2 -22 -6 -37 -9 -64 -14 -137 -112 -138 -183 l0 -33
54 0 c30 0 67 5 83 11 62 23 122 109 123 175 0 27 -4 32 -31 38 -33 6 -38 6
-54 1z"/>
<path d="M9337 9446 c-93 -34 -151 -116 -152 -216 l0 -55 60 1 c119 2 210 81
230 201 11 68 2 83 -53 83 -26 -1 -64 -7 -85 -14z"/>
<path d="M3833 9429 c-100 -39 -176 -140 -189 -253 -6 -54 -6 -56 20 -66 78
-29 194 1 271 72 58 53 90 115 101 195 6 45 4 52 -14 62 -33 17 -132 12 -189
-10z"/>
<path d="M8825 9408 c-12 -51 -7 -132 10 -171 34 -82 136 -157 212 -157 29 0
33 4 44 43 14 53 6 124 -20 175 -39 77 -137 142 -214 142 -20 0 -27 -6 -32
-32z"/>
<path d="M3010 9424 c-62 -22 -90 -39 -90 -53 0 -31 48 -118 84 -154 63 -63
109 -82 206 -82 63 0 97 5 128 19 23 10 42 22 42 26 0 29 -39 107 -72 145 -57
65 -126 97 -213 101 -38 2 -77 1 -85 -2z"/>
<path d="M7892 9368 c-56 -27 -117 -98 -138 -160 -21 -65 -15 -158 15 -216 25
-48 33 -49 106 -7 50 29 77 58 107 115 32 63 33 186 0 248 -12 23 -28 42 -35
42 -6 -1 -31 -10 -55 -22z"/>
<path d="M8159 9361 c-80 -50 -119 -142 -99 -234 6 -29 17 -62 25 -74 13 -19
19 -21 43 -12 44 15 100 67 124 112 28 55 29 138 4 195 -23 50 -36 52 -97 13z"/>
<path d="M1625 9339 c-57 -9 -153 -56 -169 -82 -9 -13 -6 -27 13 -62 31 -58
89 -110 160 -144 47 -22 70 -26 141 -26 71 0 94 4 140 26 30 14 66 35 79 46
l25 20 -28 47 c-56 96 -140 155 -251 175 -32 6 -59 10 -59 10 -1 -1 -23 -5
-51 -10z"/>
<path d="M4480 9281 c-43 -13 -84 -38 -111 -68 -30 -32 -69 -104 -69 -128 0
-38 121 -57 204 -33 56 17 128 90 149 152 l16 47 -42 19 c-43 20 -103 24 -147
11z"/>
<path d="M951 9243 c-65 -143 37 -333 197 -368 30 -6 33 -4 47 29 18 42 19
134 3 188 -16 55 -83 126 -143 154 -66 31 -89 31 -104 -3z"/>
<path d="M9400 9171 c-83 -26 -151 -93 -174 -172 -29 -98 -19 -129 45 -129
117 0 225 90 249 207 17 79 5 103 -52 102 -24 0 -54 -4 -68 -8z"/>
<path d="M3867 9093 c-13 -21 -29 -53 -35 -72 -17 -48 -15 -149 4 -204 20 -59
90 -138 143 -162 l41 -18 20 24 c65 78 78 226 27 324 -34 68 -120 145 -162
145 -8 0 -25 -17 -38 -37z"/>
<path d="M8450 9109 c-63 -19 -68 -30 -34 -96 53 -103 172 -149 279 -108 50
18 51 21 32 68 -45 106 -170 168 -277 136z"/>
<path d="M3079 9097 c-57 -16 -125 -56 -162 -94 l-27 -30 35 -46 c74 -97 177
-142 303 -135 85 5 137 26 209 85 41 33 42 35 29 61 -24 45 -98 110 -158 137
-68 31 -164 40 -229 22z"/>
<path d="M8801 9033 c-22 -79 -4 -166 48 -232 33 -41 110 -84 169 -95 28 -5
34 -2 42 20 6 14 10 53 10 88 0 111 -66 206 -169 241 -72 24 -88 21 -100 -22z"/>
<path d="M4525 9014 c-90 -29 -157 -92 -191 -181 -21 -55 -13 -65 68 -88 135
-38 275 27 336 158 32 67 29 82 -18 101 -61 24 -137 28 -195 10z"/>
<path d="M1502 8979 c-89 -45 -141 -134 -142 -245 0 -59 5 -81 28 -125 15 -30
35 -55 43 -57 26 -5 111 60 141 107 34 54 48 100 48 158 0 50 -33 143 -58 166
-17 15 -21 15 -60 -4z"/>
<path d="M2718 8990 c-50 -15 -93 -48 -116 -89 l-23 -40 25 -17 c88 -57 211
-28 267 63 l22 36 -22 18 c-23 19 -84 40 -111 38 -8 0 -27 -4 -42 -9z"/>
<path d="M1755 8977 c-66 -26 -68 -29 -51 -72 41 -98 117 -154 220 -162 50 -4
72 -1 111 16 44 20 47 23 42 51 -8 39 -50 101 -88 129 -64 48 -167 64 -234 38z"/>
<path d="M8151 8945 c-29 -13 -32 -18 -27 -42 10 -40 56 -104 95 -130 68 -46
154 -53 223 -17 34 17 32 32 -11 104 -51 85 -185 126 -280 85z"/>
<path d="M9432 8874 c-142 -38 -237 -163 -230 -304 l3 -65 76 0 c61 1 86 6
132 28 107 53 177 166 177 286 0 52 -2 59 -22 65 -35 9 -78 6 -136 -10z"/>
<path d="M6915 8814 c-89 -23 -88 -22 -83 -79 10 -114 100 -233 218 -289 54
-25 78 -30 140 -31 41 0 97 6 124 14 l48 14 -5 55 c-17 167 -172 308 -349 317
-40 2 -82 2 -93 -1z"/>
<path d="M2574 8780 c-22 -5 -57 -15 -76 -23 -42 -17 -118 -84 -118 -102 0
-24 82 -97 138 -123 76 -35 174 -36 247 -3 51 23 125 86 125 107 0 6 -18 31
-41 54 -70 72 -182 108 -275 90z"/>
<path d="M3352 8757 c-103 -109 -108 -277 -9 -384 22 -24 45 -43 51 -43 7 0
26 15 43 33 108 110 94 321 -26 406 l-28 20 -31 -32z"/>
<path d="M1753 8745 c-52 -22 -129 -101 -154 -158 -36 -82 -33 -175 9 -260 38
-77 48 -80 113 -39 95 61 142 146 143 262 1 63 -4 84 -27 132 -36 73 -44 80
-84 63z"/>
<path d="M8055 8731 c-58 -27 -96 -72 -111 -132 -19 -71 -9 -82 68 -77 45 3
66 11 95 34 61 50 77 78 78 137 l0 52 -45 3 c-28 1 -60 -5 -85 -17z"/>
<path d="M8651 8693 c-52 -187 72 -377 265 -408 40 -6 42 -5 53 26 16 47 13
158 -6 214 -24 70 -110 156 -186 184 -32 11 -71 21 -87 21 -25 0 -30 -5 -39
-37z"/>
<path d="M975 8697 c-22 -8 -54 -21 -71 -30 -31 -16 -104 -90 -104 -106 0 -22
46 -62 102 -90 51 -26 73 -31 133 -31 60 0 82 5 133 31 58 29 122 89 122 115
0 18 -69 75 -118 97 -57 24 -145 31 -197 14z"/>
<path d="M4530 8677 c-74 -17 -152 -61 -201 -115 -44 -47 -92 -141 -87 -169 4
-23 85 -61 154 -74 170 -32 351 74 415 241 l19 49 -28 19 c-65 47 -186 68
-272 49z"/>
<path d="M10050 8649 c-127 -57 -192 -204 -146 -329 12 -32 17 -35 47 -32 77
6 166 86 195 176 26 78 4 206 -35 206 -9 0 -36 -10 -61 -21z"/>
<path d="M7647 8592 c-29 -32 -57 -106 -57 -152 0 -59 28 -117 75 -159 l39
-34 31 36 c35 40 55 95 55 149 0 64 -73 178 -115 178 -6 0 -19 -8 -28 -18z"/>
<path d="M9608 8563 c-74 -77 -103 -181 -78 -281 13 -55 59 -128 102 -162 l27
-20 33 29 c83 73 119 211 84 319 -17 52 -97 152 -120 152 -7 0 -28 -17 -48
-37z"/>
<path d="M1991 8529 c-75 -74 -113 -193 -92 -288 16 -76 54 -143 107 -190 l46
-41 26 21 c40 31 88 103 102 153 19 68 9 181 -20 241 -25 52 -102 135 -125
135 -7 0 -27 -14 -44 -31z"/>
<path d="M2785 8408 c-134 -90 -183 -265 -112 -404 39 -77 50 -83 103 -55 125
67 191 224 150 362 -18 63 -54 122 -77 127 -9 1 -38 -12 -64 -30z"/>
<path d="M8092 8408 c-81 -51 -108 -177 -57 -265 14 -23 30 -43 35 -43 5 0 26
15 46 32 70 62 92 153 55 233 -27 61 -40 68 -79 43z"/>
<path d="M6350 8391 c-53 -76 -67 -189 -31 -266 21 -45 72 -100 112 -121 26
-13 29 -12 49 15 53 75 67 181 35 258 -18 43 -77 108 -117 129 -25 13 -28 12
-48 -15z"/>
<path d="M7402 8378 c-79 -131 -42 -279 91 -363 33 -21 47 -12 80 49 28 54 30
165 3 216 -32 61 -109 130 -145 130 -5 0 -18 -15 -29 -32z"/>
<path d="M3105 8376 c-15 -11 -17 -22 -12 -66 12 -102 80 -178 181 -200 74
-16 86 -9 86 53 -1 101 -63 182 -162 212 -63 18 -69 19 -93 1z"/>
<path d="M8431 8373 c-5 -10 -15 -47 -22 -82 -23 -120 21 -258 112 -352 60
-61 156 -109 237 -116 l58 -5 11 38 c21 70 25 129 14 189 -30 164 -145 289
-305 331 -68 18 -93 17 -105 -3z"/>
<path d="M1133 8366 c-95 -31 -163 -86 -202 -165 -38 -75 -38 -76 26 -108 51
-24 69 -28 148 -28 79 0 97 4 143 28 29 15 70 46 91 67 38 40 81 116 81 144 0
8 -24 26 -54 41 -65 32 -171 42 -233 21z"/>
<path d="M9322 8340 c-118 -85 -175 -246 -138 -390 17 -67 58 -139 101 -180
22 -21 27 -22 50 -10 49 26 119 106 149 170 27 58 31 75 31 155 0 76 -4 99
-27 146 -27 60 -92 139 -113 139 -6 0 -31 -13 -53 -30z"/>
<path d="M6780 8337 c-48 -15 -113 -83 -128 -133 -24 -83 -16 -94 70 -94 98 0
185 71 207 170 9 38 8 47 -6 58 -20 15 -95 14 -143 -1z"/>
<path d="M3660 8221 c-72 -22 -128 -71 -154 -133 -32 -77 -15 -98 79 -98 100
0 188 66 215 161 15 52 13 56 -34 68 -50 12 -70 13 -106 2z"/>
<path d="M7167 8182 c-9 -10 -26 -40 -38 -67 -17 -39 -21 -61 -17 -114 6 -82
33 -136 93 -189 67 -59 81 -59 116 -4 74 117 44 272 -69 359 -50 38 -63 40
-85 15z"/>
<path d="M6059 8169 c-22 -41 -24 -154 -4 -206 32 -83 110 -153 194 -172 42
-9 43 -9 57 25 17 42 17 147 0 196 -28 80 -116 154 -203 173 -26 5 -34 3 -44
-16z"/>
<path d="M9884 8089 c-17 -6 -44 -21 -60 -34 l-28 -23 30 -48 c42 -69 107
-107 190 -112 71 -5 139 14 169 47 15 17 15 22 2 48 -20 37 -74 91 -111 110
-38 19 -150 26 -192 12z"/>
<path d="M6903 8048 c-72 -75 -88 -118 -88 -233 0 -86 4 -107 25 -150 23 -48
111 -145 131 -145 20 0 88 80 115 136 25 51 29 70 29 144 0 71 -4 94 -27 142
-27 58 -107 148 -131 148 -7 0 -31 -19 -54 -42z"/>
<path d="M8180 8054 c-70 -30 -126 -106 -130 -174 -5 -94 -6 -93 54 -88 68 6
138 46 173 100 22 32 28 56 31 109 l4 69 -48 0 c-27 -1 -65 -8 -84 -16z"/>
<path d="M1373 8030 c-111 -26 -224 -124 -263 -227 -24 -64 -27 -59 60 -101
48 -24 67 -27 155 -27 87 0 107 3 156 26 96 45 171 127 204 220 14 38 13 39
-16 60 -68 48 -205 71 -296 49z"/>
<path d="M6587 7926 c-59 -22 -97 -57 -127 -121 -28 -58 -26 -70 19 -83 106
-32 213 14 260 111 33 67 29 83 -23 96 -57 14 -82 13 -129 -3z"/>
<path d="M3629 7916 c-49 -17 -89 -50 -116 -94 -13 -20 -23 -40 -23 -44 0 -3
23 -18 52 -32 97 -49 201 -28 271 54 51 60 48 76 -15 105 -59 27 -114 31 -169
11z"/>
<path d="M5839 7903 c-33 -5 -43 -42 -29 -113 17 -91 63 -161 138 -209 56 -36
144 -57 198 -47 l36 7 -4 77 c-5 88 -28 141 -85 198 -61 61 -174 100 -254 87z"/>
<path d="M2898 7804 c-26 -8 -49 -18 -52 -23 -3 -5 1 -32 10 -61 22 -75 109
-162 184 -184 30 -9 70 -16 90 -16 41 0 136 26 145 39 2 5 -3 33 -12 62 -24
76 -109 161 -183 183 -65 19 -119 19 -182 0z"/>
<path d="M8245 7794 c-50 -18 -112 -77 -136 -129 -11 -24 -19 -63 -19 -97 0
-53 2 -58 25 -64 60 -15 163 29 209 89 51 67 76 197 40 211 -26 10 -76 6 -119
-10z"/>
<path d="M9646 7786 c-76 -32 -91 -47 -82 -81 11 -44 113 -139 170 -158 97
-33 211 -15 290 45 18 14 18 15 -2 54 -70 136 -237 199 -376 140z"/>
<path d="M1797 7789 c-49 -12 -132 -54 -179 -92 -87 -70 -148 -203 -148 -322
l0 -64 36 -7 c19 -3 73 -4 119 -2 104 5 187 43 264 119 85 86 140 234 124 333
-5 30 -10 34 -42 40 -49 8 -128 6 -174 -5z"/>
<path d="M7565 7754 c-52 -12 -105 -37 -105 -50 0 -28 49 -111 81 -138 71 -60
173 -76 262 -42 45 17 48 20 42 45 -23 95 -113 172 -215 184 -25 3 -54 3 -65
1z"/>
<path d="M2194 7720 c-224 -110 -311 -417 -173 -612 19 -26 21 -26 58 -13 93
33 188 109 235 189 69 117 75 274 15 393 -23 46 -40 69 -54 70 -11 2 -47 -10
-81 -27z"/>
<path d="M6548 7676 c-49 -13 -63 -21 -116 -70 -32 -29 -72 -93 -72 -115 0 -5
23 -21 52 -35 59 -29 141 -35 212 -14 50 15 149 109 160 152 9 38 -15 58 -95
80 -65 19 -78 19 -141 2z"/>
<path d="M3640 7611 c-69 -21 -145 -83 -177 -145 -14 -28 -14 -30 14 -52 67
-55 204 -70 282 -29 48 24 117 90 131 125 16 38 4 55 -65 86 -51 24 -133 31
-185 15z"/>
<path d="M9387 7540 c-73 -19 -80 -26 -72 -78 23 -161 169 -301 332 -318 63
-7 159 9 188 30 18 13 18 16 2 82 -30 121 -121 225 -234 267 -58 22 -164 30
-216 17z"/>
<path d="M7335 7531 c-16 -4 -45 -15 -63 -25 -34 -18 -35 -20 -11 -83 15 -40
83 -106 134 -129 66 -31 148 -32 216 -2 46 19 50 23 44 47 -17 70 -74 136
-152 175 -38 19 -126 28 -168 17z"/>
<path d="M5765 7519 c-28 -3 -69 -16 -92 -28 l-42 -21 13 -44 c54 -180 272
-276 441 -194 51 25 53 34 15 113 -58 120 -196 192 -335 174z"/>
<path d="M8397 7520 c-57 -15 -108 -44 -148 -87 -58 -60 -73 -98 -73 -183 l-1
-75 70 1 c116 1 210 64 257 172 18 41 30 153 17 166 -11 11 -86 14 -122 6z"/>
<path d="M9059 7323 c-14 -38 -14 -159 1 -213 43 -163 165 -274 331 -301 86
-15 94 -9 104 80 18 157 -67 328 -202 408 -50 29 -132 53 -186 53 -32 0 -39
-4 -48 -27z"/>
<path d="M706 7267 c-76 -128 -53 -305 54 -421 41 -44 127 -96 160 -96 23 0
66 83 80 155 21 109 -17 232 -96 312 -42 41 -129 93 -158 93 -8 0 -26 -19 -40
-43z"/>
<path d="M3555 7296 c-99 -25 -170 -76 -227 -165 l-28 -45 26 -27 c14 -15 54
-40 87 -56 53 -24 75 -28 147 -28 71 0 94 4 142 27 70 33 138 94 169 153 l24
46 -25 20 c-42 33 -112 66 -168 78 -64 13 -82 13 -147 -3z"/>
<path d="M7076 7299 c-21 -5 -61 -21 -88 -36 -44 -24 -49 -30 -43 -52 11 -45
69 -132 111 -167 74 -61 127 -79 234 -79 84 0 102 3 153 29 32 15 61 34 64 41
9 24 -35 104 -87 159 -86 91 -228 135 -344 105z"/>
<path d="M2302 7185 c-35 -45 -73 -132 -89 -208 -44 -210 44 -435 220 -561 68
-48 167 -92 190 -83 20 8 84 135 102 203 32 123 14 269 -48 394 -44 88 -151
195 -238 237 -99 48 -113 49 -137 18z"/>
<path d="M61 7180 c-30 -11 -56 -22 -59 -25 -11 -10 30 -131 59 -177 104 -161
294 -224 477 -156 l53 20 -7 36 c-19 115 -112 236 -221 288 -79 38 -220 45
-302 14z"/>
<path d="M7668 7167 c-26 -8 -65 -26 -88 -41 l-40 -26 19 -38 c24 -47 98 -116
144 -135 88 -37 189 -29 271 23 l46 30 -19 38 c-24 48 -98 116 -147 137 -53
22 -131 27 -186 12z"/>
<path d="M1158 7103 c-31 -64 -33 -73 -33 -178 0 -98 3 -116 26 -166 45 -95
138 -182 229 -214 l40 -14 25 37 c102 155 78 367 -59 500 -52 52 -138 102
-174 102 -16 0 -29 -17 -54 -67z"/>
<path d="M1718 7093 c-48 -54 -88 -183 -88 -278 0 -176 107 -349 261 -423 91
-44 98 -44 130 3 63 91 89 261 59 376 -33 124 -136 250 -251 307 -76 37 -90
39 -111 15z"/>
<path d="M6785 7008 c-87 -76 -105 -197 -42 -293 30 -47 44 -50 84 -19 45 34
83 115 83 174 0 62 -52 170 -81 170 -5 0 -24 -14 -44 -32z"/>
<path d="M7100 6864 c-60 -26 -130 -110 -130 -157 0 -22 58 -42 120 -42 93 1
185 71 206 158 5 24 2 29 -30 42 -45 19 -121 19 -166 -1z"/>
<path d="M7693 6866 c-89 -29 -176 -98 -205 -162 -10 -21 -7 -29 18 -55 16
-18 55 -44 88 -60 161 -77 347 -28 447 118 l31 45 -28 29 c-16 17 -57 44 -92
61 -75 37 -188 47 -259 24z"/>
<path d="M8900 6846 c-325 -90 -523 -427 -441 -749 11 -41 29 -94 41 -117 20
-39 22 -41 58 -34 210 38 380 168 466 355 42 92 56 157 56 262 0 87 -16 167
-51 248 -19 44 -25 49 -53 48 -17 0 -51 -6 -76 -13z"/>
<path d="M6479 6788 c-31 -119 47 -251 164 -278 43 -9 50 -1 61 66 15 90 -43
196 -128 235 -66 30 -83 26 -97 -23z"/>
<path d="M451 6718 c-67 -10 -162 -60 -201 -105 -42 -47 -80 -127 -83 -170 -2
-35 0 -38 48 -56 33 -13 76 -20 126 -20 64 -1 85 4 141 30 36 17 84 50 107 73
42 43 85 122 96 175 5 28 2 33 -29 47 -30 15 -54 21 -131 32 -11 2 -44 -1 -74
-6z"/>
<path d="M9480 6694 c-270 -71 -452 -342 -412 -615 6 -44 24 -107 38 -140 l27
-60 41 7 c263 43 465 282 466 550 0 65 -29 193 -55 243 -17 35 -26 36 -105 15z"/>
<path d="M10939 6696 c-111 -31 -203 -106 -253 -205 -28 -53 -54 -177 -43
-204 14 -36 198 -35 282 2 77 34 123 70 166 130 44 61 79 161 79 226 l0 43
-50 11 c-64 14 -122 13 -181 -3z"/>
<path d="M10021 6660 c-203 -73 -333 -271 -319 -485 5 -66 37 -178 57 -198 12
-12 118 16 183 49 29 15 80 54 114 88 137 138 179 346 104 520 -17 41 -23 46
-52 46 -18 -1 -57 -9 -87 -20z"/>
<path d="M10357 6640 c-63 -69 -81 -115 -81 -205 0 -94 25 -154 92 -218 l39
-39 36 32 c20 17 50 59 67 92 35 71 40 154 14 231 -16 49 -96 147 -119 147 -7
0 -29 -18 -48 -40z"/>
<path d="M6960 6614 c-56 -24 -120 -95 -120 -134 0 -17 101 -60 140 -60 82 0
170 52 206 122 18 35 15 41 -41 67 -53 25 -134 27 -185 5z"/>
<path d="M6355 6563 c-68 -12 -68 -12 -62 -54 8 -59 51 -125 102 -154 52 -31
98 -40 159 -31 39 6 46 11 46 30 0 61 -46 140 -104 175 -35 22 -107 39 -141
34z"/>
<path d="M832 6530 c-190 -40 -341 -222 -342 -412 0 -47 0 -47 43 -59 23 -6
80 -9 127 -7 69 3 98 10 153 35 79 38 163 113 200 181 31 57 57 150 57 204 0
32 -4 40 -26 48 -39 15 -162 21 -212 10z"/>
<path d="M6856 6376 c-70 -26 -155 -127 -124 -148 70 -49 164 -61 234 -29 48
22 116 98 112 125 -7 48 -146 80 -222 52z"/>
<path d="M6156 6318 c-27 -10 -28 -13 -22 -55 20 -149 134 -253 276 -253 92 0
103 10 90 79 -31 165 -204 280 -344 229z"/>
<path d="M1400 6293 c-54 -10 -171 -73 -219 -118 -103 -96 -151 -209 -151
-351 0 -91 15 -163 36 -171 30 -11 162 19 230 52 185 90 298 303 264 497 -18
103 -14 98 -78 97 -31 -1 -68 -4 -82 -6z"/>
<path d="M3250 6204 c-165 -94 -287 -256 -326 -432 -24 -109 -15 -273 20 -368
36 -99 70 -157 130 -221 l52 -56 34 18 c129 65 239 178 302 310 91 190 90 387
-3 581 -37 79 -128 194 -153 194 -6 0 -31 -12 -56 -26z"/>
<path d="M2015 6123 c-208 -29 -383 -172 -456 -373 -20 -54 -24 -84 -24 -180
0 -64 6 -134 13 -157 12 -42 14 -43 55 -43 23 0 73 7 110 15 200 42 362 195
423 401 21 71 22 215 2 289 -14 49 -15 50 -54 51 -21 1 -52 0 -69 -3z"/>
<path d="M2671 6084 c-138 -37 -292 -152 -365 -272 -45 -75 -83 -190 -91 -277
-8 -91 14 -216 54 -300 34 -74 40 -76 132 -49 299 88 489 393 436 697 -18 105
-67 217 -94 216 -10 0 -42 -7 -72 -15z"/>
<path d="M10365 6063 c-11 -2 -35 -9 -54 -15 -33 -10 -33 -11 -29 -57 6 -63
47 -150 97 -203 94 -103 250 -142 380 -97 33 12 33 12 27 63 -14 104 -84 210
-173 262 -73 43 -177 63 -248 47z"/>
<path d="M6115 5984 c-27 -9 -62 -25 -77 -35 -26 -19 -27 -20 -13 -59 35 -99
123 -184 224 -216 99 -31 268 0 288 53 10 25 -53 137 -99 179 -87 78 -220 111
-323 78z"/>
<path d="M9956 5864 c-14 -36 -18 -160 -7 -213 13 -63 50 -139 90 -188 74 -90
203 -153 312 -153 l58 0 10 38 c17 58 13 164 -8 231 -53 171 -200 289 -372
299 -67 4 -77 2 -83 -14z"/>
<path d="M7878 5820 c-110 -83 -195 -213 -229 -350 -19 -78 -17 -232 5 -305
29 -97 86 -195 157 -270 l67 -70 57 39 c206 142 308 416 245 660 -27 107 -73
188 -154 273 -38 40 -71 73 -75 73 -3 0 -36 -23 -73 -50z"/>
<path d="M9521 5708 c-95 -235 5 -501 232 -613 50 -25 89 -37 123 -38 44 -2
49 0 62 27 42 85 53 217 27 315 -49 184 -200 325 -381 355 l-41 7 -22 -53z"/>
<path d="M8426 5669 c-171 -188 -209 -456 -95 -670 43 -79 124 -167 205 -220
l67 -43 48 54 c60 67 112 164 133 246 20 78 21 213 1 288 -37 140 -155 296
-271 358 l-52 28 -36 -41z"/>
<path d="M9005 5636 c-127 -217 -99 -482 70 -664 66 -71 133 -116 220 -148
l64 -23 19 27 c83 117 113 289 77 440 -36 152 -149 294 -289 362 -124 60 -129
60 -161 6z"/>
</g>
</svg>
