<svg version="1.0" xmlns="http://www.w3.org/2000/svg" width="300px" height="300px" viewBox="0 0 1155.000000 1280.000000">
<g transform="translate(0.000000,1280.000000) scale(0.100000,-0.100000)"
fill="#1a8d5f" stroke="none">
<path d="M4175 12783 c31 -76 37 -122 45 -338 7 -205 11 -240 34 -318 52 -175
146 -321 248 -387 74 -48 113 -60 198 -60 83 0 121 11 195 55 l59 36 17 -22
c41 -55 39 -74 -21 -229 l-57 -145 20 -40 c28 -55 34 -177 14 -302 -9 -54 -19
-120 -23 -146 -5 -37 -10 -47 -21 -43 -8 3 -16 6 -17 6 -2 0 -1 22 2 48 13
141 -185 331 -434 414 -60 20 -88 23 -209 22 -89 0 -195 -8 -290 -22 -82 -12
-212 -27 -289 -34 l-140 -11 39 -31 c75 -58 140 -131 224 -251 149 -213 309
-355 492 -439 99 -45 167 -59 253 -54 124 8 221 70 272 174 23 47 30 54 48 48
42 -14 94 -56 101 -82 3 -15 25 -70 47 -122 22 -52 70 -183 105 -290 80 -244
142 -372 224 -463 34 -37 137 -128 229 -202 236 -188 246 -202 358 -490 10
-27 15 -74 15 -145 0 -102 -6 -146 -39 -297 l-16 -71 -51 24 -51 23 -1 54 c-2
128 -129 267 -330 363 -171 82 -262 89 -562 48 -104 -14 -253 -31 -333 -37
l-144 -12 50 -37 c67 -49 127 -115 199 -218 168 -242 296 -360 492 -459 129
-64 273 -79 378 -40 68 25 144 98 171 163 11 25 24 46 30 46 17 0 104 -59 104
-71 0 -24 -117 -313 -180 -446 -119 -248 -147 -289 -331 -478 -91 -94 -171
-181 -178 -193 -31 -58 -261 -147 -261 -101 0 32 -43 356 -56 424 -31 160 -87
301 -194 490 -77 135 -121 187 -277 323 -163 142 -202 193 -430 572 -223 369
-305 518 -298 540 4 11 23 32 43 45 l37 26 15 -23 c86 -129 217 -175 367 -130
85 26 169 80 262 168 84 79 155 182 240 350 39 78 80 141 115 180 l54 60 -277
1 c-315 2 -418 -7 -504 -43 -143 -61 -267 -169 -318 -279 -26 -55 -31 -75 -27
-120 5 -54 4 -55 -35 -81 -21 -14 -40 -24 -42 -22 -1 2 -21 54 -44 116 -70
193 -143 465 -171 637 l-11 71 71 144 71 145 -5 75 c-3 51 0 88 10 115 26 74
19 107 -32 164 -27 30 -44 57 -40 66 3 8 47 42 98 76 51 34 105 71 119 83 15
13 64 44 109 71 45 26 84 54 87 61 2 7 8 43 11 81 7 67 7 68 34 65 47 -6 133
17 181 48 88 55 138 154 158 308 16 127 0 228 -67 428 -45 136 -54 175 -54
233 0 39 -2 71 -5 71 -3 0 -47 -33 -98 -74 -51 -40 -148 -114 -217 -163 -69
-50 -147 -114 -173 -142 -54 -58 -101 -149 -118 -230 -17 -82 -7 -215 21 -279
20 -47 70 -104 99 -113 9 -3 9 -13 0 -38 -7 -19 -9 -60 -7 -96 l6 -63 -47 -17
c-25 -9 -69 -25 -96 -36 -28 -10 -55 -19 -60 -19 -6 0 -22 20 -36 44 l-26 42
28 32 c38 42 52 102 46 187 -15 196 -155 403 -332 489 -44 21 -154 65 -245 98
-91 33 -218 81 -282 109 -65 27 -120 49 -122 49 -2 0 8 -30 22 -67 23 -62 25
-87 32 -298 6 -186 12 -245 29 -310 40 -149 136 -318 218 -383 139 -109 299
-115 442 -19 l44 30 18 -24 c36 -46 33 -55 -30 -118 -69 -67 -74 -88 -41 -166
24 -55 26 -145 6 -201 -8 -22 -32 -78 -55 -126 l-41 -87 -70 37 -70 37 0 50
c-1 125 -130 269 -325 361 -175 83 -266 90 -615 45 -124 -16 -270 -32 -325
-36 l-100 -7 35 -27 c81 -60 138 -124 228 -251 112 -158 197 -251 305 -331
255 -191 498 -220 650 -80 25 23 54 64 66 91 12 28 27 50 34 50 24 0 118 -71
141 -108 19 -29 26 -56 31 -127 23 -318 105 -628 305 -1150 51 -132 107 -282
126 -334 32 -89 33 -93 12 -77 -107 75 -253 129 -398 146 -159 18 -239 0 -525
-120 -82 -35 -208 -85 -280 -111 -99 -36 -125 -49 -110 -55 138 -51 176 -73
323 -186 194 -150 315 -216 508 -274 76 -23 108 -27 219 -28 120 -1 134 1 185
25 30 14 69 37 85 52 43 35 83 114 93 178 7 53 8 54 37 51 17 -2 34 -11 39
-20 6 -10 58 -81 118 -159 59 -79 108 -149 108 -155 0 -7 -11 -36 -25 -65
l-24 -52 -49 33 c-58 38 -152 62 -214 52 -107 -17 -212 -100 -280 -223 -78
-141 -108 -281 -108 -518 0 -102 -4 -131 -25 -190 -14 -38 -25 -71 -25 -72 0
-1 37 15 82 34 46 20 163 65 262 100 98 35 209 79 247 99 77 41 161 124 209
207 82 142 92 313 24 389 -15 15 -14 20 6 48 27 38 13 50 155 -130 122 -155
161 -219 204 -343 57 -164 78 -304 101 -675 l11 -174 -27 -66 c-15 -37 -50
-143 -79 -237 l-51 -170 -65 3 c-163 9 -280 52 -503 186 -59 37 -161 89 -225
117 -206 92 -314 162 -422 275 -69 73 -130 165 -304 464 -141 241 -312 508
-393 615 -26 33 -126 142 -224 241 -98 100 -178 186 -178 191 0 5 10 61 22
124 14 74 22 156 22 234 1 111 -1 125 -28 185 -30 68 -42 134 -32 174 l6 23
57 -20 c113 -38 236 -6 316 83 54 60 85 139 100 252 16 127 0 231 -63 419 -39
115 -54 175 -59 238 l-6 83 -70 -57 c-38 -32 -132 -102 -208 -157 -76 -55
-162 -123 -193 -150 -161 -148 -194 -468 -62 -605 18 -18 38 -33 45 -33 16 0
16 -10 3 -45 l-10 -26 -42 29 c-59 41 -131 120 -147 162 -7 19 -22 56 -32 82
-10 26 -19 63 -19 82 0 45 38 148 91 243 36 65 42 84 44 146 2 40 4 74 4 77 1
4 16 12 35 18 66 24 136 125 171 247 14 45 16 84 13 174 -8 198 -33 239 -316
533 -116 122 -212 225 -212 230 0 4 -4 8 -9 8 -6 0 -13 -21 -17 -47 -10 -72
-35 -131 -108 -257 -142 -244 -178 -353 -180 -546 -1 -97 3 -137 17 -176 62
-179 230 -265 425 -217 21 5 22 2 22 -49 0 -53 -1 -54 -69 -122 -39 -38 -69
-73 -68 -77 1 -4 -15 -30 -37 -58 -36 -48 -38 -54 -31 -97 3 -26 9 -53 12 -62
5 -12 0 -14 -31 -8 -21 4 -48 12 -61 18 l-23 10 32 47 c42 58 56 101 56 165 0
169 -179 303 -488 366 -137 28 -269 34 -462 22 -152 -10 -284 -5 -341 13 -33
11 -23 -40 20 -103 21 -31 79 -130 130 -219 149 -263 199 -318 357 -393 124
-60 228 -84 359 -84 93 0 118 3 160 22 27 13 57 30 67 39 17 15 21 15 56 -1
56 -28 123 -46 165 -46 32 0 40 -4 45 -22 15 -58 89 -182 162 -273 109 -135
124 -167 118 -258 -4 -54 -39 -213 -53 -234 -1 -2 -30 13 -65 31 l-64 35 -1
53 c-3 148 -204 331 -450 408 -97 31 -245 29 -490 -4 -104 -14 -235 -29 -290
-32 -55 -4 -106 -10 -113 -14 -10 -5 1 -18 36 -43 66 -49 101 -89 202 -232 99
-139 216 -265 309 -334 278 -204 527 -222 675 -50 20 24 42 60 48 81 6 21 13
38 15 38 2 0 21 -9 42 -20 58 -29 101 -76 101 -110 0 -44 16 -76 62 -126 l42
-45 -18 -34 c-10 -19 -29 -44 -41 -55 l-23 -22 -42 42 c-63 63 -119 85 -215
84 -114 0 -173 -31 -290 -149 -131 -132 -173 -211 -241 -451 -38 -135 -60
-187 -101 -242 -14 -18 -23 -36 -19 -39 3 -3 67 6 143 20 76 15 192 34 258 42
158 22 265 49 328 82 72 38 215 184 250 253 42 86 54 156 35 214 l-15 46 36
38 c20 20 43 48 52 61 l14 23 80 -65 c196 -159 219 -193 454 -677 60 -124 134
-267 165 -319 31 -51 56 -94 56 -95 0 0 -28 1 -62 3 -63 3 -63 3 -84 44 -53
107 -264 187 -493 187 -194 0 -275 -31 -551 -210 -91 -59 -199 -125 -240 -148
-125 -69 -124 -66 -28 -86 63 -13 134 -42 298 -121 307 -148 439 -185 659
-185 160 0 264 33 335 106 56 58 71 98 71 193 l0 83 60 -5 c101 -8 137 -29
209 -121 82 -105 222 -239 311 -298 72 -47 535 -282 705 -357 52 -23 133 -69
180 -101 47 -33 119 -82 160 -109 106 -69 136 -100 150 -152 14 -52 7 -172
-17 -299 -14 -73 -17 -206 -20 -975 -5 -952 -6 -912 50 -1295 27 -185 31 -244
31 -425 1 -245 -10 -298 -69 -335 -50 -31 -80 -77 -120 -186 -74 -198 -118
-266 -285 -439 -105 -110 -134 -147 -178 -230 -67 -124 -133 -209 -220 -281
-90 -74 -153 -115 -253 -165 -46 -23 -172 -102 -280 -175 l-197 -133 -223 -52
c-123 -28 -268 -61 -322 -74 -54 -12 -100 -24 -103 -27 -12 -13 50 -68 93 -82
161 -55 466 -34 638 44 33 15 115 66 181 113 138 97 172 116 287 158 373 136
801 377 1008 568 l67 61 49 -53 c67 -71 99 -130 113 -207 16 -95 16 -94 86
-178 115 -136 128 -178 90 -297 -14 -44 -26 -93 -26 -110 0 -53 30 -158 67
-238 32 -69 42 -81 87 -106 148 -84 486 -176 575 -156 40 9 42 41 4 77 -30 27
-211 142 -279 176 -58 29 -194 179 -194 213 0 6 14 35 32 63 28 45 32 62 39
156 4 58 8 148 8 201 1 88 -1 98 -27 140 -16 24 -57 68 -91 98 -63 55 -73 69
-86 128 -6 28 -4 33 12 33 41 0 272 -97 312 -132 84 -72 228 -126 506 -192 61
-14 170 -42 244 -61 238 -63 399 -69 543 -19 43 14 128 76 128 93 0 4 -80 18
-177 31 l-178 23 -200 85 c-136 58 -228 91 -289 103 -116 24 -171 57 -211 128
-71 125 -169 262 -247 346 -47 50 -90 100 -96 112 -16 30 -15 67 5 145 l17 66
-47 76 c-60 97 -64 117 -38 159 30 49 36 151 16 272 -9 55 -30 267 -46 470
-35 439 -46 810 -58 1909 l-8 789 52 91 c29 50 64 100 78 110 37 27 157 35
542 36 335 0 473 11 654 50 227 49 475 160 661 298 58 42 110 77 115 77 6 0
40 6 78 13 65 12 162 8 172 -8 3 -5 -4 -28 -15 -51 -12 -28 -20 -66 -20 -104
0 -210 217 -330 595 -329 152 1 228 13 460 71 100 25 172 36 253 40 l113 6
-139 141 c-76 78 -181 185 -233 239 -113 118 -182 167 -286 201 -124 40 -190
49 -330 44 -171 -7 -272 -44 -311 -114 -8 -15 -15 -16 -55 -6 -25 7 -62 12
-82 12 -20 0 -35 4 -33 9 2 5 127 151 279 323 599 680 781 904 862 1065 22 43
35 55 82 78 31 14 77 29 103 32 l47 5 2 -58 c2 -72 22 -121 70 -175 115 -127
336 -142 633 -43 124 41 185 74 385 204 173 112 186 119 278 150 38 12 65 25
60 29 -4 4 -60 29 -123 56 -63 26 -186 84 -273 127 -87 43 -200 93 -250 110
-89 29 -95 30 -232 25 -185 -6 -308 -40 -426 -119 -61 -41 -119 -114 -119
-149 0 -12 -12 -18 -47 -22 -27 -3 -49 -4 -50 -3 -1 1 22 43 52 92 93 156 312
385 500 524 147 108 203 159 327 299 62 69 170 188 242 264 l129 138 34 -33
c18 -17 33 -34 33 -37 0 -4 -20 -14 -43 -24 -57 -23 -122 -88 -143 -143 -23
-59 -15 -136 21 -210 60 -122 240 -276 420 -360 243 -112 291 -137 335 -174
26 -22 50 -40 53 -40 2 0 5 51 6 113 1 61 6 174 12 249 15 180 7 249 -39 341
-52 103 -162 212 -268 263 -68 33 -89 38 -150 39 l-71 0 -53 58 c-40 44 -50
61 -42 69 9 9 15 7 26 -7 13 -18 14 -17 29 12 27 52 141 131 171 120 7 -3 18
-23 24 -45 17 -58 100 -144 164 -173 74 -33 205 -33 302 -1 221 73 392 202
583 437 99 123 152 174 223 219 36 23 50 36 40 39 -8 3 -69 12 -135 21 -66 9
-201 32 -300 52 -233 47 -389 52 -505 16 -129 -41 -246 -108 -326 -187 -79
-78 -107 -129 -109 -193 -1 -43 -1 -44 -60 -67 -32 -14 -60 -23 -61 -22 -11
11 -45 271 -40 300 13 70 230 247 303 247 25 0 89 30 136 62 l28 20 29 -27 29
-28 6 29 c13 57 39 105 77 139 l38 35 58 -58 c71 -73 140 -102 241 -102 130 0
239 55 367 184 129 131 183 228 270 481 34 98 72 189 91 218 40 59 45 100 11
92 -64 -14 -162 -26 -348 -45 -293 -30 -371 -46 -469 -101 -117 -65 -229 -178
-286 -285 l-33 -62 -7 55 c-19 155 -128 342 -278 478 -134 123 -202 194 -230
245 l-31 55 -21 -50 c-11 -28 -59 -130 -107 -228 -103 -207 -128 -277 -128
-349 0 -204 161 -443 310 -460 31 -4 36 -9 53 -54 10 -27 19 -53 20 -57 1 -5
-23 -18 -53 -29 -30 -11 -77 -37 -105 -58 -79 -60 -249 -219 -265 -248 -12
-21 -15 -66 -16 -197 l-1 -170 -40 -96 c-87 -212 -252 -398 -550 -622 -164
-124 -218 -155 -326 -188 -51 -15 -94 -25 -95 -24 -2 2 2 46 8 97 21 158 -2
354 -66 573 -20 66 -83 237 -141 380 -58 143 -111 277 -119 298 l-14 38 35 15
c19 8 48 14 65 14 29 0 30 -2 30 -45 0 -89 61 -176 153 -216 106 -46 296 -35
472 28 102 37 174 75 318 170 149 97 181 114 259 138 31 10 55 21 53 25 -2 4
-26 15 -52 25 -26 9 -145 64 -265 121 -289 140 -376 161 -548 134 -185 -30
-355 -126 -378 -215 -8 -27 -14 -30 -78 -41 -39 -6 -80 -16 -91 -22 -18 -10
-29 1 -114 124 -63 91 -93 143 -91 157 6 36 50 104 82 127 l30 22 46 -51 c179
-199 479 -123 704 179 74 100 113 180 175 360 63 181 77 212 131 283 42 54 44
53 -89 32 -50 -8 -184 -24 -297 -35 -323 -33 -397 -53 -525 -145 -186 -132
-301 -349 -251 -470 l17 -39 -47 -40 c-26 -22 -54 -53 -64 -69 l-18 -28 -66
95 c-36 52 -66 103 -66 114 0 32 -29 103 -55 138 l-25 33 32 46 c33 46 33 48
33 158 -1 103 -3 118 -32 184 -17 40 -51 101 -76 136 -97 136 -183 189 -472
293 -88 31 -211 79 -274 105 -63 27 -116 47 -117 46 -2 -2 7 -32 20 -67 21
-58 24 -90 29 -280 5 -184 10 -229 32 -314 54 -215 167 -381 303 -448 59 -29
76 -33 147 -32 89 1 158 22 218 68 l36 27 28 -42 c24 -37 28 -52 28 -115 0
-53 3 -70 13 -67 7 3 12 -3 12 -15 0 -30 43 -146 100 -268 28 -59 69 -159 91
-223 22 -64 85 -203 140 -308 145 -281 204 -443 240 -653 18 -100 15 -376 -5
-570 -34 -320 -55 -396 -178 -630 -148 -283 -332 -514 -1037 -1309 -253 -284
-555 -438 -942 -481 -52 -6 -274 -12 -494 -15 -220 -2 -431 -8 -470 -14 -38
-5 -71 -8 -73 -6 -6 6 48 205 67 250 20 45 67 88 231 210 156 117 207 162 267
240 30 38 89 98 132 133 165 137 215 200 314 398 70 140 115 177 243 198 l41
7 5 -63 c10 -117 66 -195 178 -247 108 -50 309 -40 506 24 130 43 219 88 378
192 180 119 212 137 291 163 39 12 73 26 78 29 4 4 -30 22 -75 40 -46 19 -184
82 -308 141 -299 144 -304 145 -470 145 -166 0 -257 -19 -379 -81 -97 -48
-177 -122 -187 -173 -6 -27 -11 -31 -53 -37 -25 -3 -62 -9 -82 -14 l-37 -7 20
66 c39 136 88 341 119 506 17 94 41 219 53 280 l21 109 65 14 c59 12 168 11
190 -3 4 -3 0 -22 -10 -43 -67 -139 -4 -293 152 -369 85 -41 174 -62 310 -72
181 -13 317 3 583 71 88 23 151 32 237 36 l117 4 -152 156 c-349 358 -349 357
-428 396 -111 53 -231 79 -369 80 -167 1 -288 -35 -342 -104 l-23 -30 -75 16
c-132 28 -197 8 -225 -67 -9 -28 -19 -48 -21 -46 -2 2 1 30 6 63 13 77 12 231
-1 374 -30 321 -29 330 22 330 16 0 19 -7 19 -47 0 -58 26 -118 70 -161 98
-99 263 -114 498 -46 121 35 211 79 362 178 149 98 205 128 270 147 25 7 49
15 53 19 4 4 -39 26 -95 50 -57 24 -169 76 -251 117 -211 105 -270 123 -405
123 -126 0 -231 -23 -330 -71 -78 -38 -150 -104 -158 -146 -5 -26 -12 -32 -42
-37 -20 -3 -38 -3 -41 -1 -2 3 1 47 7 97 13 110 8 103 217 253 134 97 224 178
207 189 -20 12 -209 37 -243 32 -33 -5 -36 -3 -47 28 -7 19 -26 53 -42 77 -28
43 -29 44 -10 62 43 39 55 78 55 172 -1 108 -25 185 -90 290 -97 155 -188 216
-488 324 -148 54 -227 85 -369 145 l-37 16 26 -68 c24 -62 26 -83 33 -297 6
-183 12 -246 29 -310 30 -116 108 -268 176 -342 132 -146 321 -173 481 -68
l52 34 26 -49 26 -48 -37 -23 c-110 -67 -182 -152 -255 -304 l-42 -88 -8 -200
c-5 -110 -10 -203 -13 -205 -17 -17 -302 265 -399 394 -118 158 -166 274 -166
401 0 59 -5 73 -89 238 -125 247 -126 252 -126 623 0 207 3 305 11 310 6 4 16
26 21 50 13 49 43 97 84 130 l27 22 54 -53 c81 -81 132 -102 248 -102 89 0
100 3 172 38 141 68 303 247 383 420 18 39 50 124 70 187 50 152 74 204 124
270 22 30 41 57 41 61 0 3 -48 -2 -107 -12 -60 -10 -200 -27 -313 -39 -324
-33 -397 -53 -525 -145 -123 -88 -221 -218 -252 -337 -17 -66 -15 -97 11 -158
4 -10 -12 -30 -48 -62 l-54 -47 -31 51 c-28 45 -30 53 -17 60 9 5 25 26 36 48
87 171 -48 492 -261 620 -41 25 -135 67 -209 94 -74 27 -202 75 -284 107 -158
62 -204 72 -191 42z m-451 -1144 c-20 -23 -28 -18 -19 10 4 12 12 18 21 14 13
-5 13 -8 -2 -24z m6653 -853 c1 -19 7 -47 15 -63 13 -27 12 -29 -41 -78 -54
-50 -74 -58 -193 -79 -35 -6 -39 -4 -58 26 -28 46 -25 56 18 63 114 17 202 68
238 136 8 16 16 29 17 29 2 0 3 -15 4 -34z"/>
</g>
</svg>
