<svg version="1.0" xmlns="http://www.w3.org/2000/svg" width="300px" height="300px" viewBox="0 0 1141.000000 1280.000000">
<g transform="translate(0.000000,1280.000000) scale(0.100000,-0.100000)"
fill="#1a8d5f" stroke="none">
<path d="M5994 12790 c-35 -14 -64 -59 -64 -101 0 -111 154 -148 203 -48 l16
34 9 -25 c40 -105 47 -327 15 -448 -19 -71 -33 -84 -33 -33 0 46 -56 189 -100
256 -24 36 -65 86 -92 110 -50 45 -147 98 -203 111 l-29 7 36 -49 c205 -282
189 -514 -61 -900 -40 -60 -77 -127 -84 -149 -7 -23 -12 -97 -12 -175 0 -126
2 -139 28 -200 56 -127 55 -111 9 -171 -22 -30 -70 -103 -106 -164 -80 -134
-89 -147 -81 -120 54 170 74 364 57 549 -7 74 -21 168 -32 210 -58 226 -231
471 -389 549 -59 29 -74 32 -156 32 -73 0 -100 -5 -142 -24 -116 -52 -188
-177 -164 -285 31 -137 123 -207 211 -161 40 20 62 66 58 118 l-3 42 -15 -30
c-22 -47 -41 -65 -67 -65 -40 0 -62 18 -73 60 -12 46 5 98 47 142 77 80 270
47 392 -67 191 -179 296 -502 271 -834 -5 -62 -11 -116 -14 -119 -3 -3 -6 30
-6 74 0 143 -49 274 -140 376 -143 161 -364 224 -496 142 -120 -74 -149 -230
-61 -330 38 -45 76 -64 124 -64 55 0 98 31 128 92 l26 53 -29 -31 c-69 -73
-123 -84 -173 -35 -36 36 -39 89 -8 141 31 53 58 70 110 70 77 0 173 -79 205
-169 9 -25 11 -66 7 -132 -7 -117 8 -172 68 -244 65 -79 87 -116 103 -177 22
-86 7 -213 -41 -347 l-38 -106 -5 135 c-5 112 -10 144 -29 187 -28 63 -95 128
-148 142 -34 10 -245 33 -249 28 -2 -3 15 -124 27 -183 17 -90 77 -143 204
-178 85 -25 130 -57 161 -117 l25 -51 -35 -147 c-48 -197 -64 -298 -78 -481
-20 -262 10 -545 82 -790 82 -275 240 -590 423 -844 95 -132 95 -131 65 -113
-109 69 -278 162 -428 237 -99 50 -180 95 -180 100 0 18 47 104 79 144 32 41
47 91 37 129 -6 26 -84 127 -98 127 -4 0 -10 -12 -13 -27 -15 -72 -28 -113
-36 -113 -18 0 -31 46 -36 124 -4 59 -11 92 -28 121 -32 57 -121 118 -219 151
l-41 14 37 -33 c48 -41 56 -66 64 -185 7 -109 17 -154 47 -196 22 -31 18 -30
-43 12 -19 13 -77 44 -127 68 -62 28 -111 60 -148 95 l-55 52 22 15 c155 103
186 298 63 400 -62 50 -173 60 -246 22 -19 -11 -20 -9 -13 27 10 53 48 127 80
152 52 41 124 18 124 -41 0 -26 -27 -58 -49 -58 -21 0 -24 30 -6 50 16 18 17
20 2 20 -23 0 -57 -36 -57 -58 0 -23 30 -52 54 -52 29 0 72 27 84 55 35 76 -9
145 -92 145 -86 0 -154 -84 -180 -221 -9 -44 -22 -79 -39 -98 -41 -49 -60
-112 -55 -178 3 -32 8 -67 12 -78 5 -11 -8 -3 -28 20 -42 47 -90 133 -116 209
-22 65 -24 62 90 126 96 53 132 88 164 159 29 65 58 179 47 185 -15 10 -145
-24 -187 -49 -68 -40 -102 -98 -141 -240 -5 -20 -9 15 -11 109 -1 77 2 144 7
149 5 5 50 15 101 23 66 9 104 21 132 39 38 26 128 131 128 151 0 14 -67 34
-116 34 -79 -1 -163 -61 -211 -153 -30 -58 -29 -23 3 71 75 225 240 391 435
437 91 21 95 20 112 -24 19 -45 69 -91 102 -91 13 0 30 -3 39 -6 26 -10 22 76
-5 110 l-21 27 28 -7 c51 -11 138 -54 167 -82 99 -94 84 -217 -42 -335 -84
-79 -161 -97 -229 -55 -42 26 -76 96 -67 138 7 33 20 45 58 54 30 7 36 23 12
32 -25 10 -75 -17 -92 -49 -47 -92 49 -230 161 -230 130 0 296 172 296 307 0
60 -29 125 -72 161 -16 14 -24 25 -18 25 7 0 37 7 67 16 l55 16 -29 30 c-33
35 -74 58 -103 58 -27 0 -100 -37 -106 -54 -4 -11 -13 -12 -42 -3 -55 16 -208
12 -281 -7 -301 -78 -498 -376 -504 -763 l-2 -112 -23 46 c-12 26 -33 59 -47
73 -34 35 -48 106 -48 245 -1 206 52 363 172 516 64 81 154 151 219 169 77 21
152 8 152 -27 0 -15 -2 -15 -18 0 -56 51 -153 -26 -138 -108 23 -120 190 -76
227 61 14 48 -3 95 -47 134 -31 27 -42 30 -97 30 -74 0 -164 -38 -238 -100
l-46 -39 -37 25 c-42 29 -43 27 -16 -25 l19 -39 -30 -39 c-46 -57 -115 -207
-139 -303 -25 -99 -36 -298 -22 -382 7 -43 6 -58 -3 -58 -22 0 -120 32 -143
47 -13 8 -26 12 -29 10 -13 -14 22 -176 51 -231 27 -52 39 -65 85 -88 36 -19
70 -28 101 -28 43 0 48 -3 83 -50 20 -27 37 -52 37 -54 0 -3 -19 4 -42 14 -24
11 -54 19 -68 19 -37 0 -172 -53 -163 -64 4 -5 -11 6 -34 24 -52 40 -76 72
-102 138 -54 136 -47 244 24 408 59 138 69 176 54 224 -6 21 -22 52 -34 67
l-23 29 5 -80 c4 -70 2 -84 -18 -115 l-22 -35 -8 30 c-10 36 6 275 22 330 28
99 87 175 153 200 25 10 53 14 65 10 25 -7 39 -51 22 -68 -9 -9 -18 -4 -36 18
-28 34 -30 32 -13 -16 19 -56 45 -63 83 -24 18 17 25 35 25 62 0 49 -21 78
-66 93 -106 35 -251 -121 -271 -292 -5 -44 -23 -59 -23 -19 0 37 -71 159 -116
201 -44 41 -120 81 -178 94 l-28 7 21 -28 c95 -123 103 -153 110 -423 4 -124
6 -227 4 -229 -3 -5 -9 23 -48 244 -55 304 -93 395 -218 510 l-67 63 26 21
c15 12 37 23 48 26 12 2 46 9 76 15 30 6 65 17 77 26 27 17 63 72 86 132 18
45 11 54 -18 22 -15 -17 -31 -20 -93 -20 l-76 0 -45 -48 c-25 -26 -59 -74 -74
-106 -21 -43 -32 -55 -40 -47 -8 8 -8 22 3 53 11 31 31 54 75 88 97 74 115
136 74 248 -12 31 -29 83 -38 115 -8 31 -19 57 -22 57 -4 0 -16 -15 -28 -32
-11 -18 -36 -49 -56 -68 -47 -45 -66 -82 -74 -143 l-6 -50 -25 39 c-33 51 -95
81 -205 99 -50 9 -109 23 -133 31 -24 9 -46 14 -48 11 -3 -3 2 -20 11 -37 9
-18 20 -67 24 -109 5 -45 15 -89 26 -104 21 -32 19 -32 -67 -8 -78 23 -176 80
-218 128 -48 54 -41 151 14 195 31 25 50 24 36 -3 -9 -15 -9 -28 0 -49 24 -58
115 -58 145 1 48 92 -40 182 -147 150 -81 -25 -151 -128 -134 -197 9 -33 1
-30 -23 9 -40 66 -46 127 -21 252 24 123 20 150 -23 160 -22 6 -22 7 15 46 33
35 38 46 38 89 0 119 -133 166 -254 90 -119 -76 -155 -224 -95 -385 45 -121
166 -261 308 -357 42 -28 69 -49 61 -46 -8 3 -40 13 -70 23 -76 25 -155 79
-203 139 -22 28 -63 98 -91 156 -64 132 -88 166 -135 189 -43 22 -111 37 -111
25 0 -5 16 -19 35 -32 45 -29 75 -77 75 -120 l0 -34 -73 67 c-133 122 -239
179 -356 191 -70 8 -215 -26 -246 -56 -19 -20 -19 -20 6 -20 44 0 140 -29 213
-66 82 -41 176 -111 292 -217 l82 -74 -68 -6 c-82 -7 -162 -39 -195 -79 -36
-42 -47 -93 -30 -134 17 -41 43 -55 95 -52 37 3 41 6 46 36 5 27 2 38 -16 55
l-22 22 6 -32 c5 -30 3 -33 -19 -33 -57 0 -35 91 33 136 40 27 145 46 193 35
20 -5 66 -31 103 -59 83 -64 135 -80 301 -93 130 -10 272 -36 281 -51 3 -4 9
-43 14 -85 8 -77 9 -78 60 -124 l51 -47 -57 -7 c-31 -4 -62 -9 -69 -11 -6 -3
-18 18 -29 51 -22 70 -73 128 -132 151 -55 21 -160 14 -250 -16 l-61 -21 78
-79 c92 -93 120 -109 208 -120 36 -4 59 -8 50 -9 -27 -2 -179 -80 -252 -129
-88 -59 -200 -168 -252 -247 -131 -199 -129 -461 4 -648 28 -39 30 -45 20 -84
-14 -53 -6 -86 27 -116 23 -21 101 -54 109 -45 1 2 -3 29 -10 61 -6 31 -9 57
-6 57 3 0 24 -7 46 -15 83 -30 152 -14 225 52 56 50 100 128 120 210 13 59 7
103 -22 151 -57 93 -237 101 -283 12 -20 -38 -19 -63 3 -83 27 -25 30 -22 24
33 -4 49 -4 50 31 65 81 33 169 9 203 -56 47 -92 -35 -293 -140 -343 -46 -22
-131 -20 -182 3 -43 20 -118 82 -134 110 -7 14 -2 16 31 13 39 -4 99 13 99 28
0 4 -17 27 -38 50 -35 40 -41 42 -89 42 -29 0 -59 5 -68 12 -24 18 -45 155
-34 230 19 138 75 242 194 362 49 50 100 97 113 103 20 10 18 5 -13 -37 -83
-116 -85 -205 -5 -296 l33 -37 33 49 c69 103 80 173 44 277 -32 92 -33 90 83
145 97 46 208 85 163 57 -49 -31 -123 -97 -148 -133 -38 -54 -50 -125 -34
-203 7 -34 18 -67 23 -72 24 -24 181 112 213 185 11 24 22 76 26 117 8 99 20
136 47 143 37 10 209 5 262 -8 l50 -12 -85 -6 c-98 -6 -151 -26 -198 -71 -47
-44 -62 -78 -62 -134 0 -61 29 -109 77 -130 97 -40 205 73 147 155 -22 31 -67
29 -93 -4 -29 -36 -26 -50 5 -29 34 22 54 13 54 -25 0 -25 -6 -33 -35 -47 -43
-21 -77 -8 -100 38 -46 87 41 184 175 196 l57 6 7 -46 c4 -25 4 -73 0 -106 -6
-53 -3 -67 20 -116 47 -94 136 -131 241 -100 46 13 69 28 110 70 l52 53 51
-66 c62 -83 145 -218 160 -259 9 -27 2 -22 -56 36 -42 43 -89 79 -127 97 -54
26 -70 29 -160 29 -82 0 -107 -4 -140 -21 -83 -43 -114 -146 -59 -200 21 -22
31 -25 62 -19 60 11 81 38 84 109 l3 61 70 -1 c179 -3 328 -134 374 -329 7
-27 14 -57 17 -67 4 -13 -6 -18 -46 -27 -68 -15 -67 -15 -38 17 37 39 51 70
44 98 -12 46 -64 24 -117 -49 l-29 -40 0 56 c0 46 -4 61 -22 79 -13 13 -22 27
-20 33 1 5 -9 -3 -24 -19 -23 -26 -25 -36 -22 -92 3 -67 -1 -75 -23 -48 -36
44 -113 54 -122 16 -5 -22 18 -68 38 -75 27 -11 16 -22 -43 -39 -105 -31 -201
-140 -188 -213 7 -37 30 -61 67 -70 63 -16 127 61 94 112 -24 36 -61 30 -84
-14 -17 -34 -14 -36 19 -13 25 18 31 19 36 6 16 -43 -46 -75 -80 -40 -31 30
-17 74 42 137 38 39 55 47 46 22 -10 -25 40 -40 96 -29 l49 10 -34 -47 c-35
-47 -42 -73 -26 -98 15 -23 67 5 104 57 l32 45 3 -29 c6 -70 14 -94 33 -105
16 -8 25 -7 40 7 15 13 19 31 19 82 l0 65 23 -20 c47 -44 95 -55 117 -28 19
23 -5 70 -49 97 -63 39 -9 33 81 -10 64 -29 109 -62 194 -138 61 -54 111 -100
110 -101 0 0 -34 10 -74 23 -42 14 -110 28 -156 31 -106 7 -168 -12 -237 -73
-52 -46 -117 -84 -144 -84 -9 0 -13 -4 -10 -10 3 -5 14 -10 23 -10 9 0 70 -26
136 -57 194 -92 264 -86 357 33 52 65 97 94 148 94 37 0 40 -13 7 -28 -34 -15
-162 -138 -196 -187 -38 -55 -49 -102 -52 -216 l-3 -97 32 28 c17 15 64 49
105 75 92 59 115 81 139 127 23 46 24 76 3 143 -17 54 -15 87 8 117 12 16 14
16 36 0 22 -17 22 -19 7 -61 -17 -49 -20 -173 -5 -202 6 -10 32 -30 57 -43 38
-19 49 -31 58 -62 l12 -39 12 30 c22 51 35 129 27 160 -4 15 -32 53 -62 84
-48 49 -72 86 -62 96 1 2 37 -17 78 -41 109 -63 218 -107 450 -178 342 -106
438 -154 550 -271 30 -32 42 -48 25 -36 -259 192 -515 258 -692 177 -73 -34
-109 -68 -139 -131 -79 -167 70 -332 193 -214 18 19 37 47 42 64 7 30 8 30 20
8 19 -37 67 -30 142 19 85 55 148 78 212 78 l52 -1 -36 -19 c-47 -25 -86 -71
-99 -118 -13 -49 -13 -66 4 -107 17 -40 20 -40 -76 -20 -212 45 -499 60 -737
39 -216 -18 -446 -60 -606 -109 -69 -20 -102 -19 -161 9 -69 32 -99 74 -134
187 -54 170 -112 219 -285 239 -55 6 -108 14 -119 17 -16 4 -18 1 -12 -22 4
-15 11 -77 17 -137 5 -60 16 -126 25 -146 22 -55 88 -117 158 -149 56 -25 73
-28 216 -33 l155 -5 -130 -48 -130 -49 -140 -1 c-136 -2 -142 -1 -194 26 -29
16 -86 55 -126 87 -101 79 -122 86 -288 82 -162 -3 -182 3 -264 80 -61 58 -92
114 -93 168 0 99 131 179 223 135 35 -16 67 -64 67 -100 0 -29 -28 -72 -72
-109 -50 -43 -41 -45 27 -8 63 35 95 81 95 139 0 119 -116 213 -248 200 -73
-6 -127 -33 -176 -87 -92 -102 -95 -244 -11 -416 111 -227 324 -351 608 -355
81 -1 82 -1 32 -11 -27 -5 -133 -9 -235 -10 -217 -1 -331 18 -496 83 -182 71
-368 217 -423 332 -71 147 -68 282 8 350 71 64 149 72 203 20 49 -47 32 -96
-46 -136 -28 -14 -29 -15 -8 -21 33 -11 98 11 130 44 59 58 41 162 -37 213
-127 84 -276 74 -375 -26 -122 -122 -148 -295 -70 -456 32 -66 169 -207 260
-269 81 -54 209 -118 297 -148 232 -79 625 -83 881 -9 47 14 89 25 92 25 4 0
-42 -29 -100 -65 -59 -35 -154 -97 -212 -136 l-104 -72 -48 26 c-93 50 -186
72 -312 71 -162 0 -211 -16 -379 -127 -148 -97 -277 -163 -386 -197 -86 -27
-264 -38 -346 -21 -71 15 -183 68 -276 132 -89 60 -93 51 -31 -72 55 -111 151
-208 263 -266 81 -42 236 -93 281 -93 13 0 24 -4 24 -10 0 -5 -11 -10 -24 -10
-13 0 -53 -9 -88 -20 -117 -37 -404 -23 -513 25 -20 9 -24 14 -12 14 32 2 76
31 92 61 41 80 -18 180 -107 180 -78 0 -128 -51 -128 -133 0 -108 158 -185
413 -203 l97 -7 -50 -34 c-165 -111 -315 -314 -386 -523 l-22 -65 37 -7 c69
-13 306 -8 391 8 96 18 223 62 286 99 24 14 44 24 44 22 0 -2 -13 -33 -29 -68
-74 -162 -96 -320 -56 -388 68 -116 245 -80 245 49 0 100 -124 157 -201 93
l-32 -27 7 51 c15 116 101 300 180 383 28 30 65 73 83 95 l32 40 -21 -70 c-28
-100 -35 -279 -14 -369 24 -100 72 -191 140 -263 32 -35 62 -63 66 -63 4 0 1
33 -6 73 -8 39 -14 117 -14 172 0 190 43 288 195 441 105 106 181 162 354 260
136 77 198 139 256 258 56 113 79 214 71 314 -3 39 -12 88 -20 107 l-15 35 92
64 c194 134 493 296 677 365 47 18 99 39 115 46 51 24 107 45 117 45 6 0 -25
-25 -68 -56 -591 -422 -961 -968 -1061 -1564 -10 -61 -16 -165 -17 -290 l-1
-195 -29 -25 c-29 -27 -38 -64 -23 -105 5 -16 -9 -40 -71 -112 -167 -196 -292
-400 -327 -538 -40 -155 -26 -342 40 -540 41 -126 164 -415 175 -415 16 0 124
95 194 171 95 103 160 197 217 314 58 120 88 230 96 348 6 81 14 105 26 74 3
-7 32 -48 66 -90 48 -60 61 -84 61 -111 0 -25 7 -39 25 -53 l24 -18 -15 -70
c-54 -256 -30 -411 89 -560 42 -52 252 -244 268 -245 9 0 58 167 69 235 20
121 4 246 -44 351 -14 30 -22 54 -19 54 3 0 38 -12 77 -27 64 -24 85 -27 201
-28 116 0 136 3 183 24 71 32 152 121 175 191 31 95 16 229 -31 285 -51 61
-138 75 -188 31 -36 -30 -38 -84 -5 -120 30 -32 52 -37 90 -19 41 20 40 36 -2
28 -39 -8 -67 13 -67 49 0 44 49 60 105 34 61 -28 93 -169 61 -266 -23 -69
-91 -143 -158 -172 -92 -40 -260 -38 -353 5 l-30 14 32 -6 c46 -8 126 14 171
47 104 75 124 267 33 314 -42 22 -68 20 -96 -9 -31 -30 -31 -47 -2 -81 21 -24
28 -26 63 -19 l39 8 -32 11 c-18 6 -37 16 -44 23 -18 18 -3 43 26 43 77 0 96
-127 33 -220 -13 -19 -43 -44 -68 -58 -39 -20 -55 -23 -120 -20 -98 6 -158 35
-278 134 -75 62 -92 82 -92 104 0 31 -27 60 -57 60 -15 0 -42 25 -84 78 -102
127 -126 169 -148 264 -24 102 -75 241 -135 372 -43 91 -43 93 -25 115 29 36
24 82 -12 117 l-31 29 5 180 c4 99 13 225 22 280 60 387 239 754 535 1100 114
132 138 147 36 22 -236 -289 -360 -630 -373 -1022 -8 -252 18 -434 99 -715 53
-181 180 -502 193 -488 3 3 -6 49 -21 104 -132 510 -184 800 -184 1035 0 175
54 440 135 666 90 248 293 587 422 702 81 72 293 229 368 272 75 43 371 108
560 123 59 4 64 3 35 -5 -245 -74 -377 -134 -516 -232 -315 -224 -478 -524
-501 -922 -6 -104 -8 -112 -41 -157 -51 -71 -84 -176 -90 -280 -5 -106 5 -152
65 -283 89 -194 123 -323 123 -465 0 -152 -40 -245 -160 -373 -35 -37 -60 -70
-57 -73 3 -3 31 -1 63 5 160 30 288 136 372 310 l50 104 7 -97 c11 -138 -13
-270 -70 -390 l-17 -36 -22 43 c-36 72 -114 90 -166 38 -38 -37 -45 -70 -26
-115 19 -45 85 -80 135 -70 71 15 150 145 179 299 10 47 19 85 22 85 3 0 13
-20 23 -45 62 -149 222 -317 399 -419 l47 -27 15 51 c54 181 50 426 -9 568 -8
17 -12 32 -10 32 2 0 32 -20 67 -44 84 -58 131 -81 209 -102 58 -15 67 -15
101 -1 45 19 73 59 73 107 0 51 -27 87 -75 101 -55 17 -105 -6 -126 -58 -14
-32 -14 -41 -1 -75 20 -49 12 -49 -82 2 -133 73 -177 113 -303 276 -4 6 29 -4
74 -22 114 -46 177 -57 289 -52 86 4 106 9 171 41 40 19 84 45 98 56 l25 21
-73 0 c-148 0 -271 39 -378 120 -101 76 -217 261 -293 467 -17 45 -39 99 -50
120 -73 143 -289 276 -448 277 l-63 0 0 50 c0 80 26 233 56 326 148 472 617
790 1238 840 155 12 206 13 206 2 0 -11 -148 -47 -295 -72 -218 -37 -330 -85
-431 -186 -124 -123 -144 -216 -100 -468 14 -82 26 -171 26 -199 0 -43 2 -48
18 -42 54 22 130 48 233 79 126 39 185 75 232 143 51 74 66 131 77 296 14 235
38 282 192 383 l99 65 97 -17 c792 -134 1562 -679 2253 -1596 159 -212 275
-387 288 -434 17 -67 31 -215 31 -331 0 -296 -68 -578 -213 -888 l-52 -109 -6
124 c-8 153 -30 272 -75 407 -52 155 -88 226 -217 426 -61 94 -68 111 -63 140
7 36 33 66 81 90 70 35 89 94 58 188 l-18 57 -79 -27 c-56 -18 -85 -34 -99
-52 -29 -41 -32 -104 -8 -173 11 -33 19 -61 17 -64 -7 -7 -85 103 -105 148
-32 73 -34 109 -11 174 27 79 26 102 -11 182 -36 81 -33 117 13 169 39 45 75
46 123 4 24 -22 35 -40 35 -59 0 -50 -23 -57 -110 -34 l-25 7 26 -21 c82 -66
169 -31 169 68 0 81 -91 160 -182 160 -48 0 -128 -41 -169 -87 -55 -61 -73
-117 -67 -215 l5 -83 -19 45 c-91 213 -79 441 27 539 77 71 164 75 220 10 27
-33 32 -58 13 -77 -18 -18 -33 -15 -67 14 -44 36 -41 6 3 -40 62 -67 136 -36
136 56 0 121 -80 192 -217 193 -63 0 -76 -3 -114 -30 -84 -59 -133 -182 -132
-330 0 -145 69 -340 170 -485 10 -14 -11 0 -47 31 -36 30 -81 68 -101 83 -36
26 -37 28 -41 109 -3 61 -11 97 -31 140 -35 77 -55 101 -164 191 -139 116
-218 226 -234 326 -6 41 3 149 17 193 19 59 -95 -44 -127 -116 -17 -41 -22
-70 -22 -136 l0 -83 -34 53 c-32 51 -64 142 -77 217 l-6 33 29 -20 c37 -26 65
-27 91 -1 44 44 4 120 -64 120 -73 0 -95 -79 -58 -210 l18 -65 -64 42 c-74 48
-176 88 -279 107 -83 16 -81 18 -57 -65 24 -81 82 -185 136 -244 l48 -53 -98
5 c-111 6 -156 -7 -164 -51 -12 -62 53 -122 104 -95 44 23 51 60 17 103 l-20
26 30 0 c55 0 171 -30 228 -58 l56 -29 -76 -6 c-117 -9 -212 -61 -254 -140
-19 -38 -12 -43 35 -24 178 71 334 20 562 -187 77 -70 139 -101 235 -117 60
-10 79 -9 130 5 33 10 67 18 76 19 36 4 277 -209 399 -353 43 -51 49 -60 25
-45 -16 11 -69 46 -116 77 -187 122 -373 207 -567 256 -98 25 -123 27 -297 27
-150 -1 -203 -4 -253 -18 -50 -14 -67 -15 -78 -6 -8 7 -29 9 -49 6 -28 -5 -54
3 -127 38 -183 87 -346 115 -459 81 -70 -21 -155 -67 -252 -137 l-88 -63 23
-17 c39 -30 145 -87 214 -114 98 -39 197 -57 286 -53 l77 5 -31 -44 c-17 -24
-37 -43 -43 -43 -7 0 -18 -6 -24 -14 -7 -8 -41 -17 -84 -20 -131 -12 -166 -24
-217 -75 -48 -48 -117 -188 -100 -205 4 -4 57 -7 117 -5 101 4 112 6 167 37
56 32 59 33 53 11 -7 -27 10 -112 30 -154 22 -43 72 -94 115 -116 79 -41 205
-16 228 46 17 45 -16 95 -61 95 -52 0 -59 -53 -13 -91 16 -13 17 -12 10 6 -14
36 -12 50 9 50 15 0 21 -8 23 -32 3 -27 -2 -34 -29 -49 -51 -26 -139 -16 -186
23 -45 35 -79 93 -88 148 l-7 40 21 -33 c43 -67 157 -91 205 -43 16 17 18 26
10 48 -7 22 -16 28 -39 28 -26 0 -30 -4 -33 -30 l-4 -29 20 24 c19 24 21 24
28 6 17 -44 -66 -61 -123 -26 -35 21 -73 85 -73 123 0 45 31 127 60 161 17 18
30 41 30 50 0 35 72 117 129 145 31 16 91 54 134 85 63 45 83 54 106 50 22 -5
32 -1 48 19 43 55 380 75 569 33 82 -18 268 -76 262 -82 -3 -2 -36 3 -74 12
-100 22 -288 29 -381 14 -165 -26 -331 -94 -488 -198 -156 -104 -164 -120 -29
-53 158 78 297 135 403 167 108 32 286 42 425 25 86 -11 138 -23 342 -75 63
-17 169 -77 283 -163 103 -77 116 -92 187 -207 74 -117 78 -133 17 -60 -91
108 -190 184 -324 249 -112 54 -198 69 -356 63 -98 -4 -147 -2 -180 8 -59 18
-164 18 -206 1 -18 -8 -61 -36 -97 -63 -102 -77 -180 -108 -270 -108 -65 0
-85 5 -152 36 -43 20 -78 33 -78 29 0 -15 55 -89 85 -113 42 -35 106 -66 167
-82 36 -9 47 -15 37 -22 -18 -11 -190 -18 -225 -10 -24 6 -25 8 -9 20 41 30 5
106 -50 106 -54 0 -74 -69 -32 -108 30 -29 72 -40 153 -43 68 -2 76 -7 45 -26
-31 -20 -100 -133 -117 -192 -9 -31 -18 -64 -20 -73 -5 -16 3 -18 73 -18 86 0
171 18 235 51 38 19 40 20 33 2 -4 -10 -10 -50 -12 -89 -5 -64 -3 -73 19 -99
59 -68 157 -5 100 65 -18 23 -54 29 -86 15 -17 -8 -18 -5 -12 31 12 67 35 128
61 159 l24 30 1 -57 c0 -84 33 -163 92 -222 26 -27 51 -46 54 -43 4 3 -1 27
-10 53 -9 26 -16 75 -16 108 0 101 53 175 201 280 53 37 80 64 97 97 30 60 38
141 19 196 -14 40 -13 42 7 47 41 11 202 6 271 -9 232 -49 460 -244 599 -514
26 -51 45 -95 43 -98 -6 -5 -8 -2 -91 133 -64 105 -125 165 -201 200 -75 34
-132 33 -230 -5 -44 -17 -95 -33 -112 -37 -18 -4 -33 -8 -33 -10 0 -10 126
-167 155 -193 53 -47 129 -65 215 -52 140 22 196 9 278 -65 38 -35 45 -48 59
-114 11 -51 17 -125 17 -230 0 -182 0 -183 -118 -365 -230 -352 -519 -666
-928 -1007 -253 -210 -519 -395 -903 -628 -474 -288 -602 -382 -768 -568 -347
-390 -460 -906 -312 -1421 63 -220 152 -414 262 -569 l44 -62 1237 0 1237 1
-171 58 c-415 141 -699 293 -869 465 -105 106 -166 200 -207 317 -30 88 -32
103 -32 234 0 122 3 152 27 239 90 327 264 595 836 1296 327 401 468 587 666
885 410 615 637 1199 664 1702 7 130 0 350 -14 428 -7 39 -4 45 49 112 56 69
58 71 138 94 147 41 214 25 329 -79 91 -82 119 -100 189 -118 96 -24 152 -10
295 76 44 26 101 58 127 71 l47 23 -33 37 c-19 20 -57 71 -86 114 -108 160
-157 195 -280 203 -143 8 -246 -34 -445 -183 -237 -177 -261 -162 -40 23 187
157 399 273 597 328 126 35 320 44 435 20 142 -29 280 -97 378 -187 l45 -42
-41 -44 c-82 -89 -138 -259 -126 -382 3 -31 23 -101 46 -158 66 -163 84 -246
79 -377 -3 -103 -6 -116 -39 -186 -20 -42 -64 -109 -98 -150 -35 -41 -58 -76
-53 -78 17 -5 122 36 173 69 27 17 72 57 100 88 47 53 127 194 130 230 3 28
17 -82 18 -134 1 -56 -29 -184 -58 -248 l-18 -42 -11 27 c-23 56 -93 65 -141
17 -37 -37 -41 -83 -10 -123 27 -34 93 -37 133 -5 44 35 92 143 121 273 6 28
8 26 49 -45 53 -91 166 -201 254 -247 34 -18 66 -31 71 -28 5 3 19 47 32 98
30 121 33 303 6 392 -10 32 -16 60 -14 63 3 2 28 -10 57 -28 61 -37 157 -69
210 -69 104 0 161 152 71 190 -38 15 -76 4 -106 -32 -26 -30 -34 -91 -15 -103
24 -15 7 -23 -27 -13 -97 27 -206 99 -263 174 l-39 51 77 -24 c110 -35 229
-30 322 14 36 16 82 44 102 60 l38 31 -119 4 c-109 4 -124 7 -184 36 -112 55
-187 158 -257 347 -55 151 -86 209 -132 251 -54 49 -156 95 -228 103 -53 6
-65 12 -112 57 -119 112 -265 186 -421 215 -88 15 -267 13 -365 -6 -142 -27
-316 -97 -472 -191 -56 -33 -47 -24 55 58 100 80 257 189 310 215 37 19 192
60 312 83 41 7 299 40 319 40 2 0 4 -6 4 -14 0 -10 16 -17 48 -21 341 -47 696
-215 895 -424 126 -134 266 -341 425 -631 78 -144 86 -137 27 25 -123 335
-306 611 -523 786 -179 144 -438 251 -652 269 l-85 7 100 1 c119 2 272 -18
404 -53 100 -27 235 -74 214 -74 -7 -1 -13 -5 -13 -10 0 -5 22 -12 49 -16 90
-12 281 -140 433 -288 59 -58 67 -70 62 -94 -7 -35 14 -64 56 -78 30 -10 35
-19 66 -109 38 -113 82 -211 124 -276 44 -68 66 -275 36 -330 -12 -21 -12 -29
1 -54 16 -31 15 -65 -7 -186 -22 -125 -105 -236 -194 -259 -104 -26 -214 64
-162 134 8 12 19 16 31 12 17 -7 17 -18 0 -61 -8 -18 -7 -18 18 -1 29 19 37
61 15 83 -37 37 -108 -12 -108 -74 0 -30 8 -45 43 -79 74 -74 174 -71 264 9
l47 41 -25 -45 c-32 -59 -144 -171 -194 -195 -63 -30 -154 -32 -210 -5 -51 25
-100 83 -110 131 -9 38 9 83 40 99 51 27 74 -18 35 -67 -25 -32 -20 -39 17
-21 55 26 56 113 0 132 -20 7 -36 6 -61 -7 -87 -41 -90 -171 -6 -255 55 -55
86 -67 180 -67 75 0 91 3 138 29 71 40 168 145 214 231 30 57 38 66 43 50 26
-77 71 -148 125 -198 70 -65 219 -146 231 -125 13 23 30 178 30 267 0 173 -57
265 -239 386 -60 40 -71 51 -66 69 3 14 -3 31 -15 45 -13 15 -21 38 -21 60 0
20 -3 61 -7 91 l-6 54 29 -22 c170 -132 328 -184 554 -184 109 0 255 14 266
24 2 2 -20 69 -50 149 -113 310 -216 452 -381 530 -109 51 -225 73 -461 84
-126 7 -132 8 -143 31 -11 25 -50 40 -77 30 -12 -4 -48 24 -123 97 -59 57
-146 129 -193 160 -337 224 -775 308 -1263 241 -110 -16 -289 -49 -322 -61
-12 -4 -15 -3 -8 4 20 19 333 162 454 207 121 45 398 126 431 126 10 0 24 -17
35 -41 34 -74 136 -148 254 -183 99 -29 187 -22 340 28 177 58 276 78 386 77
183 0 295 -62 412 -230 l38 -53 7 38 c15 86 -17 218 -72 299 -41 59 -112 125
-181 167 l-62 37 109 3 c60 2 116 0 124 -5 8 -4 48 -18 87 -31 40 -13 94 -36
120 -52 l47 -27 -39 -14 c-50 -17 -72 -37 -85 -79 -26 -78 40 -149 114 -124
61 20 103 87 91 146 -12 65 -137 155 -257 186 -26 6 -48 14 -48 18 0 3 24 14
53 24 112 38 264 143 367 252 56 59 110 126 110 136 0 10 -101 49 -177 68
-109 28 -241 35 -338 17 -44 -8 -89 -19 -100 -23 -13 -5 -5 10 25 45 121 142
180 246 180 319 0 62 -41 102 -102 102 -65 -1 -108 -45 -108 -111 0 -51 8 -67
41 -84 36 -19 69 -19 97 1 29 20 28 15 -12 -53 -38 -64 -129 -171 -191 -225
-43 -37 -165 -120 -165 -112 0 3 13 24 29 47 37 55 84 149 107 217 28 83 26
255 -5 333 -12 31 -25 57 -29 57 -4 0 -17 -42 -29 -93 -44 -181 -130 -310
-274 -408 -105 -71 -204 -110 -475 -188 -40 -12 -99 -39 -132 -62 -110 -73
-220 -215 -252 -325 l-12 -42 -126 -32 c-68 -18 -156 -43 -195 -56 -39 -13
-72 -23 -73 -21 -2 1 38 30 89 64 206 138 417 365 513 555 102 202 143 459 94
591 -54 144 -205 223 -346 182 -103 -30 -204 -156 -204 -256 0 -60 45 -109
100 -109 32 0 95 36 114 65 l17 26 -37 -16 c-67 -28 -106 -13 -106 40 0 73
104 137 187 114 51 -14 92 -54 128 -123 31 -59 32 -65 31 -176 -1 -97 -5 -128
-28 -200 -71 -217 -206 -413 -402 -585 l-68 -60 64 80 c72 91 124 192 141 273
6 31 9 99 7 151 -3 82 -8 106 -34 161 -35 73 -91 136 -140 156 -82 34 -210 2
-268 -67 -41 -48 -56 -90 -56 -153 0 -48 4 -60 31 -91 28 -32 36 -35 83 -35
28 1 65 7 81 15 30 13 29 13 -28 14 -48 1 -62 5 -82 26 -48 47 -20 126 57 164
55 26 84 26 124 2 42 -26 58 -75 52 -162 -7 -86 -29 -124 -123 -212 -87 -80
-119 -139 -135 -247 -17 -118 -56 -187 -155 -273 -50 -43 -120 -91 -175 -119
-101 -52 -101 -50 5 62 87 92 118 152 123 241 5 75 -6 102 -65 171 -21 24 -49
59 -63 77 l-25 33 -54 -67 c-117 -146 -128 -205 -64 -335 43 -90 48 -152 15
-217 -18 -34 -48 -59 -179 -146 -177 -118 -284 -201 -410 -321 -93 -87 -93
-86 -39 44 44 108 82 237 106 365 27 147 29 158 40 298 5 70 15 137 20 147 19
35 64 51 123 44 47 -6 56 -4 84 20 28 24 94 160 82 169 -17 14 -117 47 -140
47 -53 0 -99 -55 -140 -164 l-19 -51 4 95 c6 133 29 188 109 265 65 61 64 60
98 194 15 61 65 111 111 111 42 0 64 -22 73 -73 8 -41 -8 -92 -31 -101 -23 -9
-39 2 -63 42 l-22 37 5 -39 c12 -85 82 -112 140 -53 39 38 51 95 36 164 -46
205 -306 185 -406 -31 -31 -67 -30 -37 2 66 52 166 146 309 238 363 50 29 121
33 167 9 55 -28 78 -129 40 -175 -16 -20 -21 -21 -34 -10 -9 7 -17 25 -19 39
-5 42 -23 22 -22 -25 1 -79 65 -110 116 -55 36 37 48 73 48 143 0 100 -47 177
-132 215 -34 15 -46 16 -85 6 -128 -35 -253 -184 -327 -390 -29 -83 -66 -252
-66 -309 -1 -60 -15 -20 -35 98 l-17 106 36 53 c69 101 96 256 67 384 -22 92
-32 253 -22 335 13 104 47 175 117 252 66 72 62 81 -33 59 -64 -14 -137 -75
-182 -153 l-31 -52 0 44 c0 55 23 146 57 219 l25 57 9 -32 c5 -18 19 -38 30
-44 65 -35 118 61 68 125 -26 33 -68 34 -97 4 -23 -26 -64 -105 -82 -160 -6
-21 -13 -38 -15 -38 -2 0 -13 32 -25 72 -12 40 -37 102 -55 138 -34 67 -109
170 -124 170 -13 0 -60 -169 -71 -255 -6 -44 -7 -109 -4 -145 6 -64 6 -65 -11
-40 -59 83 -130 136 -171 126 -27 -7 -54 -52 -54 -91 0 -28 40 -75 65 -75 29
0 55 38 55 83 l1 42 41 -45 c49 -55 79 -100 102 -160 10 -25 21 -51 24 -58 2
-8 -19 4 -47 26 -86 64 -169 79 -248 42 -41 -18 -57 -40 -30 -40 6 0 39 -13
72 -28 134 -64 193 -180 235 -462 24 -164 54 -233 134 -308 40 -38 65 -53 95
-58 47 -7 44 -2 66 -144 9 -58 20 -113 26 -122 5 -10 5 -18 1 -18 -5 0 -5 -23
-1 -51 10 -64 24 -319 17 -319 -3 0 -16 44 -28 98 -51 221 -155 469 -268 638
-83 123 -230 264 -343 327 -54 30 -90 57 -98 73 -6 13 -20 28 -32 32 -14 5
-34 40 -63 107 -100 235 -188 332 -331 370 -72 18 -295 21 -295 4 0 -27 74
-229 102 -279 48 -86 106 -157 159 -196 27 -20 49 -38 49 -40 0 -11 -72 -34
-106 -34 -28 0 -50 10 -89 40 -122 94 -197 92 -333 -12 l-54 -40 47 -48 c56
-57 125 -97 183 -106 23 -4 42 -8 42 -10 0 -1 -9 -18 -20 -36 -56 -96 -69
-232 -30 -313 56 -115 178 -138 210 -40 10 30 9 40 -4 60 -18 27 -48 33 -63
13 -14 -18 -23 -58 -13 -58 4 0 14 10 23 23 20 29 43 11 33 -28 -17 -67 -106
-48 -154 34 -23 39 -27 57 -26 116 1 48 8 84 22 115 l20 45 1 -48 c2 -81 54
-151 107 -145 37 4 61 47 44 78 -17 33 -54 23 -58 -15 -2 -28 -2 -29 13 -11
18 23 34 12 18 -12 -14 -22 -43 -17 -70 14 -27 30 -38 82 -27 132 4 20 8 41 8
46 2 34 135 143 161 132 9 -3 21 4 30 17 9 14 41 32 78 46 55 19 70 21 112 11
28 -6 87 -10 133 -9 73 2 85 -1 103 -20 23 -24 24 -24 49 -11 14 8 33 2 82
-26 141 -80 250 -181 347 -324 60 -89 125 -200 119 -205 -2 -2 -32 36 -68 83
-119 157 -276 265 -455 313 -90 24 -349 39 -380 22 -13 -8 -2 -11 46 -16 150
-14 357 -69 476 -127 140 -69 293 -230 438 -462 51 -82 70 -130 102 -258 48
-195 52 -232 37 -370 -17 -153 -22 -168 -23 -69 -1 92 -24 231 -53 319 -54
168 -153 305 -281 392 -33 22 -67 54 -76 71 -24 45 -80 106 -115 125 -22 12
-67 18 -161 22 -115 5 -136 9 -181 33 -64 32 -104 82 -140 172 -22 54 -29 65
-35 49 -24 -62 5 -223 54 -295 42 -62 42 -62 16 -54 -37 12 -111 69 -148 116
-19 23 -29 39 -23 35 30 -18 72 25 72 73 0 21 -36 61 -55 61 -27 0 -55 -38
-55 -75 0 -46 21 -87 77 -146 48 -51 48 -49 -24 -64 -71 -14 -209 -127 -197
-160 17 -43 179 -135 239 -135 34 0 32 -10 -15 -55 -46 -45 -70 -91 -70 -135
l0 -32 -54 49 c-29 26 -100 90 -157 141 -106 95 -280 234 -447 356 -101 73
-129 101 -240 240 -263 329 -447 696 -527 1053 -68 302 -32 642 99 919 170
359 453 562 827 592 l87 7 4 -71 c6 -97 56 -203 135 -286 64 -66 92 -83 226
-134 164 -63 264 -122 348 -204 103 -102 148 -203 150 -338 0 -26 4 -56 8 -67
7 -17 11 -13 34 26 49 83 60 127 61 234 0 91 -3 108 -35 192 l-36 92 46 -32
c89 -63 185 -181 225 -279 l16 -37 -35 15 c-30 12 -39 12 -69 0 -64 -26 -76
-97 -27 -147 40 -40 89 -40 133 0 30 26 33 35 32 80 -2 58 -35 136 -95 224
-30 43 -36 58 -23 53 11 -4 46 -15 79 -24 133 -36 462 -8 459 40 -2 26 -75
129 -144 201 -69 74 -121 113 -213 163 l-58 31 58 13 c165 36 272 106 273 178
0 55 -56 112 -110 112 -12 0 -35 -13 -51 -29 -53 -53 -32 -131 42 -156 l33
-11 -65 -26 c-107 -43 -211 -60 -312 -53 l-89 7 56 23 c167 68 277 192 306
345 6 29 8 55 5 58 -3 3 -33 -22 -67 -55 -76 -72 -134 -107 -213 -127 -138
-36 -301 -6 -535 100 -76 34 -95 39 -180 42 -115 4 -178 -11 -271 -67 -59 -35
-73 -39 -184 -49 -156 -15 -258 -41 -375 -98 -265 -127 -451 -354 -560 -682
-22 -64 -39 -114 -40 -110 -1 29 36 264 56 358 31 137 34 143 138 288 134 189
193 252 305 325 248 163 428 245 667 306 330 83 578 68 1143 -70 112 -27 206
-48 208 -45 17 17 -347 149 -522 190 -121 29 -148 34 -241 46 -121 16 -423 8
-524 -15 -235 -53 -470 -159 -613 -278 -71 -59 -101 -77 -52 -32 211 194 485
360 727 439 163 54 299 77 493 83 l171 6 28 -27 c33 -30 52 -32 99 -10 32 15
36 15 74 -5 79 -40 244 -101 330 -122 49 -12 104 -30 123 -40 65 -32 180 -129
198 -167 11 -25 26 -39 43 -42 26 -5 79 -42 79 -55 0 -4 20 -29 44 -56 61 -68
88 -130 93 -214 5 -88 -19 -136 -87 -173 -74 -39 -176 -14 -168 42 4 31 36 32
49 2 14 -30 29 -25 29 8 0 29 -22 49 -55 49 -35 0 -55 -20 -55 -55 0 -40 15
-65 50 -83 63 -32 166 -9 222 51 34 37 48 74 48 130 0 61 14 48 30 -25 17 -83
9 -205 -17 -256 -42 -81 -129 -134 -218 -135 -110 0 -169 38 -163 106 2 32 7
40 26 42 32 5 52 -15 52 -49 0 -36 13 -37 28 -4 34 73 -77 133 -127 69 -43
-55 -19 -139 52 -176 34 -18 58 -23 127 -23 77 0 90 3 140 31 101 57 150 151
150 288 0 72 -14 141 -44 210 -15 36 -15 38 2 31 117 -49 115 -49 242 -50 111
0 135 3 213 29 48 15 87 31 87 35 0 3 -35 47 -78 96 -87 101 -186 181 -259
209 -73 28 -217 31 -328 8 -88 -19 -90 -19 -111 -1 -11 11 -33 19 -50 19 -17
0 -43 12 -64 29 l-34 29 42 13 c42 12 61 37 20 25 -73 -20 -94 -18 -124 8
l-29 25 56 1 c122 0 327 73 453 159 102 71 303 271 291 290 -6 11 -235 105
-345 143 -351 119 -587 60 -935 -235 -89 -76 -102 -84 -125 -75 -34 13 -67 2
-86 -27 -15 -24 -20 -25 -78 -19 -84 8 -313 -11 -437 -37 -273 -56 -565 -201
-801 -396 -69 -56 -80 -62 -98 -51 -17 11 -23 9 -42 -10 l-23 -23 22 -5 c21
-6 15 -15 -66 -100 -102 -108 -176 -197 -255 -308 -31 -43 -56 -74 -56 -70 0
5 22 65 49 134 94 240 181 410 318 617 l74 111 37 -15 c49 -21 172 -20 247 2
160 46 252 122 344 285 212 373 410 502 706 458 55 -8 102 -14 104 -11 9 7
-97 99 -146 126 -68 36 -191 67 -267 67 -54 0 -163 -18 -219 -36 -30 -9 107
116 161 148 69 41 180 85 239 96 l52 9 -18 -26 c-29 -41 -33 -67 -17 -105 20
-47 70 -79 115 -72 92 14 120 125 49 196 -28 28 -34 30 -110 30 -82 0 -182
-26 -270 -71 -22 -11 -38 -17 -36 -12 89 183 111 271 112 448 1 72 -3 147 -7
167 l-8 37 -53 -19 c-186 -64 -357 -191 -458 -341 l-24 -36 -12 111 c-26 249
-110 364 -228 316z m581 -407 c-10 -37 -36 -104 -59 -148 l-41 -80 -3 100 -3
100 56 54 c31 29 58 51 61 48 3 -3 -2 -36 -11 -74z m-553 -475 c-9 -9 -12 1
-11 43 l1 54 11 -43 c7 -31 7 -46 -1 -54z m204 -102 c-74 -234 -207 -453 -381
-626 l-95 -95 16 55 c57 196 146 387 238 510 65 88 245 284 254 276 2 -3 -12
-57 -32 -120z m-369 -123 c-9 -185 -58 -344 -152 -488 l-26 -40 5 130 c3 84
12 157 25 206 23 90 129 309 149 309 2 0 2 -53 -1 -117z m578 38 c-16 -15 -85
-41 -85 -31 0 4 19 15 43 23 52 19 53 19 42 8z m-112 -272 c-87 -139 -258
-288 -406 -354 l-57 -25 26 43 c57 90 150 200 208 246 64 51 232 151 254 151
7 0 -4 -25 -25 -61z m1635 -22 c8 -10 2 -12 -29 -9 -21 2 -39 8 -39 13 0 14
56 11 68 -4z m-319 -47 c-54 -47 -144 -100 -202 -119 -76 -25 -146 -37 -132
-24 37 35 108 85 152 108 50 25 194 67 202 59 2 -2 -7 -13 -20 -24z m621 -64
c0 -2 -12 -12 -27 -21 l-28 -18 19 21 c17 20 36 29 36 18z m-6360 -40 c0 -2
-8 -10 -17 -17 -16 -13 -17 -12 -4 4 13 16 21 21 21 13z m5960 -4 l45 -7 -75
-32 c-145 -61 -338 -92 -460 -76 l-65 9 40 18 c174 77 370 110 515 88z m-5839
-32 c27 -15 24 -48 -6 -62 -23 -11 -34 -28 -17 -28 4 0 13 -4 21 -9 11 -7 7
-15 -18 -37 -21 -19 -36 -46 -45 -79 l-13 -50 -21 42 c-40 76 -19 192 40 220
30 15 35 15 59 3z m5662 -160 c96 -33 74 -43 -80 -38 -101 4 -141 10 -190 29
-42 15 -59 26 -50 31 6 5 66 7 132 5 93 -3 136 -9 188 -27z m-6153 -173 c25
-22 36 -35 25 -29 -11 7 -47 37 -80 68 -62 58 -24 32 55 -39z m3737 41 c-3 -8
-6 -5 -6 6 -1 11 2 17 5 13 3 -3 4 -12 1 -19z m-3652 -118 c10 -11 16 -20 13
-20 -3 0 -13 9 -23 20 -10 11 -16 20 -13 20 3 0 13 -9 23 -20z m375 0 c0 -5
-2 -10 -4 -10 -3 0 -8 5 -11 10 -3 6 -1 10 4 10 6 0 11 -4 11 -10z m6279 -76
c54 -11 34 -24 -38 -24 -85 0 -138 9 -119 21 15 10 112 12 157 3z m-71 -59
c34 -8 92 -30 130 -49 59 -31 64 -35 37 -36 -60 0 -275 74 -275 95 0 9 44 5
108 -10z m-50 -59 c45 -23 116 -86 96 -86 -17 0 -109 58 -133 84 -30 32 -23
33 37 2z m-5128 -66 c16 -69 8 -93 -45 -129 l-45 -30 0 60 c0 33 5 70 11 82
14 27 50 67 60 67 4 0 12 -23 19 -50z m-252 -41 c50 -21 58 -39 54 -112 l-4
-55 -48 20 c-69 29 -96 62 -103 126 l-6 53 32 -6 c18 -4 51 -15 75 -26z m142
-192 c14 -42 -10 -30 -33 16 -15 30 -17 48 -11 90 l7 52 13 -65 c8 -36 18 -78
24 -93z m-400 87 c52 -14 118 -38 145 -54 28 -15 86 -40 130 -56 186 -64 327
-200 383 -369 20 -59 62 -252 62 -283 0 -9 -18 14 -40 53 -23 38 -63 98 -89
134 -47 63 -49 68 -44 118 5 44 1 62 -21 108 -44 88 -129 127 -230 104 -48
-10 -60 -9 -117 11 -37 12 -101 24 -151 27 -49 3 -88 10 -88 16 0 5 5 27 11
47 16 52 3 107 -31 142 -16 15 -25 28 -22 28 4 0 50 -12 102 -26z m4125 1 c39
-8 103 -27 144 -41 69 -25 73 -28 50 -38 -13 -5 -87 -10 -164 -10 -147 -1
-198 9 -325 60 l-55 22 35 6 c114 19 228 19 315 1z m-80 -140 c122 -36 237
-91 368 -178 128 -84 123 -91 -44 -57 -198 40 -345 100 -503 206 -93 62 -116
79 -116 86 0 9 202 -30 295 -57z m-4468 9 c-3 -3 -12 -4 -19 -1 -8 3 -5 6 6 6
11 1 17 -2 13 -5z m4256 -85 c107 -54 181 -106 238 -166 53 -55 119 -137 119
-146 0 -10 -105 39 -173 80 -71 43 -197 160 -245 227 -18 25 -31 46 -27 46 3
0 42 -19 88 -41z m-3673 -109 c0 -5 -6 -10 -14 -10 -8 0 -18 5 -21 10 -3 6 3
10 14 10 12 0 21 -4 21 -10z m1704 -18 c8 -14 -32 -72 -59 -84 -48 -22 -75 32
-35 72 20 20 84 28 94 12z m3059 -167 c63 -38 115 -84 95 -85 -9 0 -47 25 -83
55 -73 60 -77 69 -12 30z m-4344 -623 c-1 -33 -2 -34 -9 -12 -12 36 -12 62 0
55 6 -3 10 -23 9 -43z m131 -5 c0 -2 -10 -12 -22 -23 l-23 -19 19 23 c18 21
26 27 26 19z m-239 -64 l24 -27 -32 23 c-33 23 -40 31 -25 31 5 0 19 -12 33
-27z m308 -47 c-2 -2 -17 -6 -34 -10 -22 -5 -26 -4 -15 4 14 9 59 15 49 6z
m79 -51 c17 -36 16 -37 -24 -18 -32 16 -34 18 -18 30 25 18 29 17 42 -12z
m432 -7 c0 -6 -7 -5 -15 2 -8 7 -15 17 -15 22 0 6 7 5 15 -2 8 -7 15 -17 15
-22z m-850 -18 c-14 -4 -32 -8 -40 -9 -13 -1 -13 0 0 9 8 5 26 9 40 9 l25 -1
-25 -8z m301 -66 c13 -16 12 -16 -7 -6 -11 6 -27 19 -35 28 -13 16 -12 16 7 6
11 -6 27 -19 35 -28z m-251 -35 c-12 -16 -25 -28 -28 -25 -5 6 36 56 45 56 3
0 -5 -14 -17 -31z m117 -46 c-3 -10 -5 -2 -5 17 0 19 2 27 5 18 2 -10 2 -26 0
-35z m847 21 c3 -8 2 -12 -4 -9 -6 3 -10 10 -10 16 0 14 7 11 14 -7z m438 -66
c-15 -15 -26 -4 -18 18 5 13 9 15 18 6 9 -9 9 -15 0 -24z m-835 -101 c7 -4
-10 -29 -42 -62 -60 -63 -75 -66 -159 -33 l-57 21 23 25 c48 52 78 64 154 59
39 -2 76 -7 81 -10z m474 -44 c18 -31 62 -87 98 -126 52 -55 61 -68 41 -62
-67 20 -183 71 -255 112 -123 70 -122 69 -65 69 40 0 58 6 92 31 24 17 46 32
50 32 3 1 21 -24 39 -56z m-366 -190 c-3 -12 -26 -39 -51 -59 -37 -31 -47 -35
-55 -23 -23 36 -5 91 48 150 l38 42 13 -44 c7 -24 10 -54 7 -66z m772 -55 l28
-30 -35 7 c-31 7 -131 42 -138 49 -1 2 25 3 57 3 53 1 62 -2 88 -29z m2462
-128 c16 -25 32 -56 35 -70 6 -21 0 -18 -35 20 -36 40 -89 126 -89 147 0 14
61 -52 89 -97z m-166 44 c49 -25 205 -170 194 -180 -20 -20 -217 131 -248 189
-13 23 -8 22 54 -9z m901 -53 c53 -166 81 -364 74 -511 -3 -63 -4 -64 -16 -35
-27 60 -61 196 -76 298 -15 95 -22 327 -11 327 2 0 15 -36 29 -79z m-793 -133
c60 -31 62 -33 34 -36 -38 -5 -89 11 -140 43 l-40 24 41 1 c27 0 63 -11 105
-32z m954 -93 c6 -81 3 -127 -10 -202 -23 -125 -28 -138 -37 -88 -18 104 6
416 32 400 4 -3 11 -52 15 -110z m-3407 96 c10 -6 4 -14 -23 -29 -22 -14 -43
-37 -54 -62 l-18 -40 -19 21 -19 21 -5 -33 c-4 -27 -10 -35 -31 -37 -18 -2
-29 4 -38 21 -31 58 64 146 159 146 19 1 41 -3 48 -8z m2037 -53 c14 -6 25
-15 25 -19 0 -10 -58 10 -66 22 -7 12 10 11 41 -3z m1109 -62 c20 -33 45 -84
56 -115 23 -59 53 -191 46 -198 -10 -10 -88 140 -114 222 -32 96 -47 175 -32
159 5 -5 25 -36 44 -68z m-1115 18 c55 -11 35 -27 -29 -22 -72 5 -107 28 -43
28 22 0 55 -3 72 -6z m-5475 -165 c3 -15 0 -12 -9 9 -9 18 -18 61 -20 95 l-5
62 14 -71 c7 -38 16 -81 20 -95z m4057 40 c535 -315 887 -577 1220 -909 206
-206 319 -339 431 -508 73 -112 182 -301 176 -307 -2 -2 -62 67 -133 153 -256
311 -670 699 -964 906 -304 213 -624 379 -912 472 l-87 27 34 32 c24 22 34 41
34 61 0 66 -61 101 -112 64 l-28 -21 0 22 c0 56 85 125 141 115 15 -3 105 -51
200 -107z m1435 66 c-11 -8 -25 -15 -32 -15 -7 0 -20 -3 -30 -7 -12 -4 -15 -3
-10 5 4 6 21 16 39 21 46 13 55 12 33 -4z m-2512 -388 c-120 -89 -190 -177
-241 -300 -15 -38 -29 -64 -31 -59 -5 15 45 129 82 186 41 64 116 140 181 182
72 47 77 41 9 -9z m3281 -170 c28 -14 64 -36 80 -47 l30 -21 -65 3 c-68 4
-152 37 -200 78 l-25 21 65 -4 c44 -3 82 -13 115 -30z m-265 -2 c20 -24 6 -28
-15 -5 -10 11 -13 20 -8 20 6 0 16 -7 23 -15z m270 -100 c106 -22 113 -29 49
-51 -40 -14 -82 -19 -164 -19 -102 0 -205 17 -205 34 0 12 152 49 202 50 26 1
79 -6 118 -14z m-1186 -34 c-2 -3 -12 3 -22 13 -16 17 -16 18 5 5 12 -7 20
-15 17 -18z m4826 4 c-7 -8 -16 -15 -20 -15 -3 0 -7 7 -7 15 0 8 9 15 20 15
16 0 17 -3 7 -15z m-70 -5 c0 -5 -12 -10 -27 -10 -16 0 -53 -2 -83 -5 l-55 -5
45 14 c54 17 120 20 120 6z m-3341 -45 c233 -172 333 -556 252 -974 -11 -57
-23 -106 -26 -109 -8 -8 -6 7 11 130 10 69 14 149 11 206 -4 80 -9 101 -38
160 -39 76 -72 103 -157 127 -31 8 -72 22 -91 31 -18 8 -35 13 -38 11 -2 -3
-5 -65 -6 -138 -2 -131 -1 -135 28 -194 25 -50 42 -68 97 -105 115 -78 129
-97 152 -207 14 -64 13 -69 -10 -132 -39 -102 -87 -183 -186 -309 -50 -64 -94
-118 -97 -120 -4 -1 -13 26 -20 60 -18 86 -74 253 -122 358 -112 249 -280 497
-493 728 l-77 83 31 29 c16 15 30 36 30 47 0 32 -24 67 -50 73 -24 6 -24 6 19
53 45 48 88 79 129 92 l23 7 -26 -40 c-33 -50 -61 -124 -70 -185 -8 -51 2
-157 14 -157 4 0 16 26 26 59 50 167 147 231 349 231 74 0 87 3 129 30 55 35
104 99 120 157 6 24 14 43 18 43 4 0 34 -20 68 -45z m2465 -17 c-61 -73 -190
-175 -294 -231 -69 -37 -237 -100 -253 -94 -14 4 154 153 232 206 73 50 141
82 254 122 45 15 84 28 85 28 2 1 -8 -14 -24 -31z m-2629 -24 c-45 -38 -144
-83 -200 -90 l-50 -7 20 23 c44 49 158 98 230 99 l30 0 -30 -25z m-5385 -58
c0 -7 -112 -73 -186 -109 -142 -70 -306 -107 -472 -107 -82 0 -93 2 -82 15 23
28 274 145 355 165 94 23 385 50 385 36z m8340 -92 c-136 -87 -377 -185 -540
-218 -76 -15 -330 -39 -337 -32 -6 5 179 104 277 149 190 86 381 128 615 135
l40 1 -55 -35z m-8316 -46 c-88 -95 -228 -218 -309 -274 -95 -65 -281 -161
-385 -199 -113 -41 -230 -74 -230 -65 0 10 201 198 280 263 83 68 217 149 327
197 89 39 335 128 357 130 5 0 -13 -24 -40 -52z m66 -85 c-1 -19 -93 -190
-133 -246 -60 -83 -190 -207 -284 -267 -41 -28 -80 -50 -84 -50 -13 0 55 131
117 228 65 99 152 187 276 275 91 65 108 75 108 60z m4589 -147 c-3 -3 -18 12
-33 32 l-29 37 34 -32 c18 -18 31 -35 28 -37z m3676 54 c-3 -5 -10 -10 -16
-10 -5 0 -9 5 -9 10 0 6 7 10 16 10 8 0 12 -4 9 -10z m-384 -60 c90 -16 179
-42 174 -51 -9 -14 -190 -51 -281 -56 -92 -6 -180 5 -287 34 -32 9 -54 20 -50
24 7 6 98 28 218 53 40 8 174 6 226 -4z m-4858 -110 c26 -41 7 -32 -24 12 -12
17 -17 29 -10 27 7 -3 22 -20 34 -39z m-2106 -260 c120 -170 187 -307 243
-500 27 -91 65 -298 57 -306 -2 -3 -43 53 -90 123 -97 144 -163 270 -202 388
-23 72 -85 348 -85 385 0 18 3 14 77 -90z m105 49 c116 -90 203 -188 272 -306
40 -69 79 -163 68 -163 -22 0 -208 169 -252 228 -55 74 -166 282 -151 282 5 0
33 -19 63 -41z m-222 -90 c42 -110 63 -216 64 -329 1 -103 -11 -230 -22 -230
-9 0 -55 121 -77 201 -25 91 -34 203 -24 313 9 100 14 126 23 126 2 0 19 -36
36 -81z m2690 -42 c41 -28 103 -78 138 -111 69 -66 177 -194 170 -201 -9 -9
-189 108 -264 172 -73 64 -204 208 -204 226 0 11 75 -29 160 -86z m308 -169
c23 -46 42 -87 42 -91 0 -17 -73 49 -121 110 -52 65 -119 186 -119 213 1 8 36
-22 79 -66 57 -60 89 -104 119 -166z m-5100 146 c-22 -41 -38 -77 -36 -80 3
-2 29 0 58 6 29 5 60 9 69 9 18 -2 -104 -28 -132 -29 -14 0 -11 13 23 80 22
44 38 80 35 80 -11 0 -111 -53 -150 -80 -60 -41 -194 -186 -195 -211 0 -10
110 10 182 32 37 12 102 41 143 64 41 24 75 40 75 36 0 -4 -39 -28 -87 -54
-87 -45 -192 -79 -286 -92 l-48 -6 15 28 c51 95 171 208 280 263 96 48 102 43
54 -46z m6253 -6 c5 -10 6 -18 1 -18 -4 0 -16 17 -25 38 -15 31 -15 34 -1 17
8 -11 20 -28 25 -37z m-1636 -18 c7 -12 -2 -12 -30 0 -19 8 -19 9 2 9 12 1 25
-3 28 -9z m-4722 -65 c-23 -46 -33 -57 -63 -65 -58 -16 -66 -13 -39 16 24 27
117 104 125 104 2 0 -8 -25 -23 -55z m4847 -66 c41 -11 103 -36 138 -54 77
-43 166 -109 153 -113 -18 -6 -122 28 -185 60 -78 39 -205 128 -183 128 1 0
36 -9 77 -21z m3931 -290 c61 -60 85 -93 117 -160 46 -97 59 -133 44 -128 -29
11 -137 106 -177 156 -43 54 -104 166 -120 222 l-7 23 33 -18 c19 -11 68 -53
110 -95z m-56 -174 c19 -39 46 -113 59 -165 27 -101 57 -300 46 -300 -3 0 -35
43 -70 96 -103 157 -164 318 -189 507 -20 142 -18 143 55 32 36 -55 80 -132
99 -170z m-4572 234 c85 -28 97 -43 27 -35 -53 6 -180 43 -180 52 0 12 99 1
153 -17z m5936 -23 c24 -9 69 -31 100 -49 l56 -32 -51 -3 c-72 -4 -177 23
-251 64 -35 19 -63 38 -63 41 0 11 165 -6 209 -21z m-2651 -13 c-27 -2 -69 -2
-95 0 -27 2 -5 3 47 3 52 0 74 -1 48 -3z m-151 -9 c-3 -3 -12 -4 -19 -1 -8 3
-5 6 6 6 11 1 17 -2 13 -5z m283 -15 c18 -11 -34 -1 -65 13 -13 5 -9 6 15 2
19 -4 42 -10 50 -15z m-3335 -13 c11 -4 6 -6 -62 -26 -48 -15 -258 -9 -275 8
-9 9 66 26 152 35 26 2 168 -10 185 -17z m4283 -50 c29 -99 44 -210 37 -271
-15 -125 -29 -195 -37 -187 -22 22 -58 207 -58 299 0 97 17 233 30 233 4 0 17
-33 28 -74z m1536 -19 c58 -31 207 -161 227 -199 9 -17 7 -18 -18 -12 -54 12
-209 91 -270 138 -55 42 -153 143 -153 159 0 8 148 -51 214 -86z m-7264 19 c0
-2 -9 -2 -20 1 -11 3 -20 9 -20 15 0 5 9 4 20 -2 11 -6 20 -12 20 -14z m1440
-8 c0 -14 -109 -57 -161 -63 l-54 -7 40 24 c77 45 100 54 137 53 21 0 38 -3
38 -7z m5669 -63 c51 -48 78 -85 106 -141 21 -41 35 -78 32 -81 -18 -17 -144
112 -182 186 -61 122 -54 128 44 36z m-7506 -115 c-3 -11 -9 -20 -14 -20 -5 0
-9 9 -9 20 0 11 6 20 14 20 9 0 12 -7 9 -20z m2615 -120 c-26 -16 -73 -38
-105 -49 -61 -20 -166 -33 -157 -20 2 4 29 22 59 39 55 32 151 58 215 59 l35
1 -47 -30z m-1168 -9 c-8 -5 -31 -12 -50 -15 -35 -7 -35 -7 -10 8 14 9 36 15
50 15 19 0 21 -2 10 -8z m1209 -61 c-46 -55 -139 -130 -201 -161 -60 -31 -138
-59 -138 -51 0 15 126 138 174 172 48 32 197 102 204 95 2 -2 -15 -27 -39 -55z
m1553 38 c-7 -7 -12 -8 -12 -2 0 14 12 26 19 19 2 -3 -1 -11 -7 -17z m-2737
-8 c-9 -15 -75 -56 -105 -65 -25 -8 -25 -7 -6 13 17 20 92 62 109 62 5 0 5 -5
2 -10z m0 -60 c-16 -16 -31 -28 -34 -25 -2 3 8 19 24 35 16 16 31 28 34 25 2
-3 -8 -19 -24 -35z m1223 -52 c-45 -95 -164 -217 -142 -145 19 63 54 118 107
170 32 32 61 56 64 53 3 -3 -10 -38 -29 -78z m-1411 -44 c-3 -3 -12 -4 -19 -1
-8 3 -5 6 6 6 11 1 17 -2 13 -5z m-2443 -66 c-22 -95 -33 -127 -70 -198 -38
-72 -123 -175 -124 -149 0 33 40 169 65 221 28 56 124 188 136 188 4 0 1 -28
-7 -62z m93 -158 c-4 -86 -13 -165 -26 -216 -23 -95 -89 -264 -102 -264 -15 0
-10 280 6 367 16 85 47 182 86 273 l23 54 9 -39 c5 -22 6 -101 4 -175z m1469
139 c55 -45 64 -57 70 -94 12 -82 2 -85 -50 -15 -49 66 -102 160 -90 160 4 0
35 -23 70 -51z m-1360 -75 c29 -88 42 -245 26 -324 l-9 -45 -21 48 c-38 85
-52 159 -52 280 0 120 6 161 21 135 4 -8 20 -50 35 -94z m8665 -121 c35 -32
69 -80 69 -98 0 -14 -64 41 -91 78 -48 66 -39 75 22 20z m-45 -39 c35 -54 74
-156 74 -192 -1 -49 -102 137 -116 211 -3 20 -4 37 -1 37 3 0 22 -25 43 -56z
m-3471 -65 c-62 -364 -209 -740 -446 -1144 -201 -343 -408 -629 -849 -1170
-533 -654 -709 -922 -815 -1239 -109 -325 -80 -643 81 -884 71 -108 197 -238
302 -314 45 -33 82 -62 82 -64 0 -2 -321 -4 -714 -4 l-714 0 -30 48 c-46 70
-107 196 -142 291 -184 501 -128 947 166 1327 145 187 302 309 754 584 129 78
306 190 393 247 592 392 1106 869 1438 1333 224 315 424 737 490 1033 19 88
22 60 4 -44z m3413 -39 l0 -65 -13 35 c-7 19 -13 67 -13 105 l0 70 13 -40 c8
-22 13 -69 13 -105z m242 -134 c0 -39 -6 -30 -13 19 -4 27 -3 35 3 25 5 -8 10
-28 10 -44z m-9135 -445 c44 -107 53 -137 43 -148 -10 -12 -17 -1 -40 59 -28
70 -68 203 -68 222 0 19 11 -3 65 -133z m788 27 c39 -80 63 -156 72 -233 6
-47 5 -49 -10 -30 -24 29 -60 102 -78 160 -20 59 -37 175 -27 175 4 0 24 -33
43 -72z m76 8 c39 -50 77 -124 68 -132 -13 -14 -137 158 -137 190 0 16 34 -13
69 -58z m-140 -101 c0 -33 -4 -69 -8 -79 -6 -16 -10 -11 -19 26 -13 51 -16
166 -5 194 11 28 33 -69 32 -141z m246 -401 c-3 -24 -10 -44 -14 -44 -4 0 -2
28 3 63 6 34 12 54 14 43 2 -10 1 -38 -3 -62z m-55 -9 c13 -14 21 -25 18 -25
-2 0 -15 11 -28 25 -13 14 -21 25 -18 25 2 0 15 -11 28 -25z"/>
<path d="M6521 12395 l-42 -40 3 -80 3 -80 27 50 c29 57 62 159 56 177 -3 7
-22 -4 -47 -27z"/>
<path d="M3330 5327 c0 -12 52 -96 80 -127 l31 -35 -7 45 c-3 25 -7 45 -8 46
0 0 -22 17 -48 38 -27 21 -48 36 -48 33z"/>
<path d="M7065 4718 c-114 -298 -329 -653 -571 -942 -405 -484 -900 -890
-1634 -1336 -404 -247 -509 -320 -645 -455 -115 -114 -196 -227 -266 -370
-182 -373 -165 -796 51 -1240 32 -66 69 -132 82 -148 l23 -27 693 2 694 3 -59
41 c-195 138 -340 329 -410 539 -37 110 -37 110 -38 285 0 113 5 195 13 230
63 260 196 525 415 830 84 118 240 316 447 570 432 528 655 835 850 1170 77
132 195 364 250 490 67 154 158 430 141 430 -4 0 -20 -33 -36 -72z m-350 -749
c-31 -59 -139 -235 -208 -339 -184 -276 -350 -496 -648 -860 -477 -583 -640
-813 -774 -1091 -109 -228 -150 -395 -150 -604 1 -299 103 -526 338 -753 l75
-72 -614 0 -614 0 -27 42 c-71 113 -160 348 -198 523 -22 100 -30 312 -16 418
24 181 95 364 202 524 29 43 107 132 173 199 133 133 260 222 636 450 469 283
767 498 1103 794 243 213 496 483 656 697 42 57 77 103 79 103 1 0 -5 -14 -13
-31z"/>
<path d="M6394 3563 c-130 -141 -166 -177 -309 -307 -352 -321 -674 -557
-1165 -856 -327 -199 -501 -316 -596 -402 -209 -188 -335 -388 -402 -637 -22
-85 -25 -116 -26 -276 -1 -203 9 -270 73 -464 37 -112 98 -250 141 -319 l20
-32 582 0 582 0 -66 67 c-81 83 -177 214 -212 287 -220 466 -97 958 408 1630
117 155 155 204 506 636 262 322 583 760 568 775 -2 3 -49 -43 -104 -102z
m-362 -450 c-11 -16 -116 -145 -233 -288 -464 -566 -637 -809 -775 -1085 -104
-208 -160 -410 -171 -606 -10 -191 29 -379 112 -544 32 -64 142 -221 164 -234
36 -23 -22 -26 -478 -26 l-488 0 -31 57 c-44 83 -99 224 -129 328 -117 416
-37 796 235 1112 120 139 279 256 677 498 254 155 459 288 620 404 126 90 375
288 460 365 59 53 63 55 37 19z"/>
<path d="M5610 2728 c-149 -111 -378 -262 -650 -428 -488 -298 -605 -388 -752
-584 -211 -282 -266 -641 -153 -1011 36 -117 92 -257 121 -302 l14 -23 425 0
c234 0 425 2 425 5 0 2 -20 32 -44 67 -126 182 -189 391 -189 628 1 446 233
900 826 1613 49 59 88 109 86 111 -2 2 -51 -32 -109 -76z m-427 -430 c-4 -7
-51 -78 -104 -158 -199 -298 -304 -532 -360 -800 -26 -126 -31 -353 -10 -470
15 -87 72 -263 107 -332 l24 -48 -293 0 -294 0 -26 62 c-35 82 -62 164 -90
263 -18 69 -21 106 -21 260 0 167 2 186 27 268 75 243 235 446 487 617 96 64
546 347 558 349 2 1 -1 -5 -5 -11z"/>
<path d="M5498 9797 c-61 -23 -123 -64 -158 -104 -86 -98 -117 -175 -154 -390
-14 -79 -30 -161 -36 -184 -20 -71 3 -65 54 15 67 104 126 131 321 145 111 8
144 14 195 37 103 46 153 119 200 294 12 47 28 97 36 112 22 43 18 48 -43 48
-32 0 -93 7 -136 15 -121 23 -236 28 -279 12z m8 -223 c-66 -34 -164 -120
-215 -189 -12 -16 -18 -21 -12 -9 17 35 84 111 131 148 46 35 137 86 155 85 6
0 -21 -16 -59 -35z m204 -89 c0 -9 -74 -42 -110 -50 -46 -10 -31 4 33 31 52
22 77 28 77 19z"/>
<path d="M2783 4512 c-29 -42 -31 -48 -15 -54 34 -13 88 -8 121 13 l35 21 -30
13 c-16 7 -38 22 -48 34 -11 11 -22 21 -25 21 -3 0 -21 -22 -38 -48z"/>
</g>
</svg>
